<svg xmlns="http://www.w3.org/2000/svg" viewBox="12567 5073 43.5 29"><defs><style>.cls-1{fill:#00ab0c}</style></defs><g id="credit-card" transform="translate(12567 4987.667)"><g id="Group_319" data-name="Group 319" transform="translate(0 85.333)"><g id="Group_318" data-name="Group 318"><path id="Path_952" data-name="Path 952" class="cls-1" d="M38.969 85.333H4.531A4.538 4.538 0 0 0 0 89.864V109.8a4.538 4.538 0 0 0 4.531 4.531h34.438A4.538 4.538 0 0 0 43.5 109.8V89.864a4.537 4.537 0 0 0-4.531-4.531zm2.718 24.467a2.722 2.722 0 0 1-2.719 2.719H4.531a2.722 2.722 0 0 1-2.719-2.719V89.864a2.722 2.722 0 0 1 2.719-2.719h34.438a2.722 2.722 0 0 1 2.719 2.719V109.8z" transform="translate(0 -85.333)"/></g></g><g id="Group_321" data-name="Group 321" transform="translate(0 90.77)"><g id="Group_320" data-name="Group 320"><path id="Path_953" data-name="Path 953" class="cls-1" d="M42.594 149.333H.906a.907.907 0 0 0-.906.906v5.437a.907.907 0 0 0 .906.906h41.688a.907.907 0 0 0 .906-.906v-5.437a.907.907 0 0 0-.906-.906zm-.906 5.437H1.812v-3.625h39.875v3.625z" transform="translate(0 -149.333)"/></g></g><g id="Group_323" data-name="Group 323" transform="translate(5.437 103.458)"><g id="Group_322" data-name="Group 322"><path id="Path_954" data-name="Path 954" class="cls-1" d="M75.781 298.667H64.906a.906.906 0 1 0 0 1.812h10.875a.906.906 0 1 0 0-1.812z" transform="translate(-64 -298.667)"/></g></g><g id="Group_325" data-name="Group 325" transform="translate(5.437 107.083)"><g id="Group_324" data-name="Group 324"><path id="Path_955" data-name="Path 955" class="cls-1" d="M75.781 341.333H64.906a.906.906 0 1 0 0 1.813h10.875a.906.906 0 1 0 0-1.813z" transform="translate(-64 -341.333)"/></g></g><g id="Group_327" data-name="Group 327" transform="translate(30.812 101.645)"><g id="Group_326" data-name="Group 326"><path id="Path_956" data-name="Path 956" class="cls-1" d="M367.2 277.333h-1.812a2.722 2.722 0 0 0-2.719 2.719v1.812a2.722 2.722 0 0 0 2.719 2.719h1.812a2.722 2.722 0 0 0 2.719-2.719v-1.812a2.722 2.722 0 0 0-2.719-2.719zm.906 4.531a.907.907 0 0 1-.906.906h-1.812a.907.907 0 0 1-.906-.906v-1.812a.907.907 0 0 1 .906-.906h1.812a.907.907 0 0 1 .906.906z" transform="translate(-362.667 -277.333)"/></g></g></g></svg>