<svg xmlns="http://www.w3.org/2000/svg" viewBox="20551 4602 46.145 53.658"><defs><style>.cls-1{fill:#00ab0c}</style></defs><g id="online-shop" transform="translate(20515.152 4602)"><g id="Group_349" data-name="Group 349" transform="translate(48.578 44.735)"><g id="Group_348" data-name="Group 348"><path id="Path_966" data-name="Path 966" class="cls-1" d="M160.39 426.861a3.074 3.074 0 1 0 3.074 3.074 3.078 3.078 0 0 0-3.074-3.074zm0 4.052a.978.978 0 1 1 .978-.978.979.979 0 0 1-.978.978z" transform="translate(-157.316 -426.861)"/></g></g><g id="Group_351" data-name="Group 351" transform="translate(60.187 37.833)"><g id="Group_350" data-name="Group 350"><path id="Path_967" data-name="Path 967" class="cls-1" d="M270.167 361.843a1.091 1.091 0 0 0-.06-.2 1.046 1.046 0 0 0-.227-.34 1.065 1.065 0 0 0-.34-.226 1.115 1.115 0 0 0-.2-.061 1.028 1.028 0 0 0-.606.061.973.973 0 0 0-.181.1 1.014 1.014 0 0 0-.289.289 1.056 1.056 0 0 0-.1.18 1.091 1.091 0 0 0-.06.2 1.007 1.007 0 0 0 0 .409 1.057 1.057 0 0 0 .06.2 1.032 1.032 0 0 0 .1.181 1.016 1.016 0 0 0 .289.289 1.039 1.039 0 0 0 .181.1.983.983 0 0 0 .2.06 1.033 1.033 0 0 0 .2.021 1.053 1.053 0 0 0 .205-.021 1.028 1.028 0 0 0 .2-.06 1.063 1.063 0 0 0 .18-.1 1 1 0 0 0 .159-.13 1.07 1.07 0 0 0 .131-.159 1.061 1.061 0 0 0 .156-.377 1.058 1.058 0 0 0 0-.409z" transform="translate(-268.091 -360.999)"/></g></g><g id="Group_353" data-name="Group 353" transform="translate(41.021 37.833)"><g id="Group_352" data-name="Group 352"><path id="Path_968" data-name="Path 968" class="cls-1" d="M101.07 361H86.255a1.048 1.048 0 1 0 0 2.1h14.815a1.048 1.048 0 0 0 0-2.1z" transform="translate(-85.207 -361)"/></g></g><g id="Group_355" data-name="Group 355" transform="translate(48.508 3.53)"><g id="Group_354" data-name="Group 354"><path id="Path_969" data-name="Path 969" class="cls-1" d="M161.889 33.687H157.7a1.048 1.048 0 0 0 0 2.1h4.192a1.048 1.048 0 0 0 0-2.1z" transform="translate(-156.649 -33.687)"/></g></g><g id="Group_357" data-name="Group 357" transform="translate(35.848)"><g id="Group_356" data-name="Group 356"><path id="Path_970" data-name="Path 970" class="cls-1" d="M80.944 13.668h-7.22l-2.476-3.613a1.048 1.048 0 0 0-1.728 1.185l1.664 2.428h-3.728V2.819A2.822 2.822 0 0 0 64.637 0h-25.97a2.822 2.822 0 0 0-2.819 2.819v48.02a2.822 2.822 0 0 0 2.819 2.819h25.97a2.822 2.822 0 0 0 2.819-2.819V36.768h9.769a1.048 1.048 0 0 0 1.036-.889l2.463-16.015h.221a1.048 1.048 0 0 0 1.048-1.048v-4.1a1.048 1.048 0 0 0-1.049-1.048zm-8.324 2.1l1.374 2H58.823l1.374-2zM37.944 2.819a.724.724 0 0 1 .723-.723h25.97a.724.724 0 0 1 .723.723v4.242H37.944zm27.416 48.02a.724.724 0 0 1-.723.723h-25.97a.724.724 0 0 1-.723-.723v-6.757H65.36zm0-8.853H37.944V9.157H65.36v4.511h-3.727L63.3 11.24a1.048 1.048 0 0 0-1.729-1.185l-2.476 3.613h-7.22a1.048 1.048 0 0 0-1.048 1.048v4.1a1.048 1.048 0 0 0 1.048 1.048h.221l2.46 16.016a1.048 1.048 0 0 0 1.036.889h9.768zm-7.7-26.222l-1.374 2H52.92v-2zm18.67 18.908H56.491l-1-6.478h21.831zm1.314-8.572H55.172l-.346-2.249H77.99zm.668-4.345H54.5l-.29-1.889H78.6zm1.588-3.987h-3.366l-1.374-2h4.74z" transform="translate(-35.848)"/></g></g><g id="Group_359" data-name="Group 359" transform="translate(38.872 14.841)"><g id="Group_358" data-name="Group 358"><path id="Path_971" data-name="Path 971" class="cls-1" d="M75.8 151.981a1.048 1.048 0 0 0-.93-.566h-1.527v-8.755a1.048 1.048 0 0 0-1.048-1.048h-3.976a1.048 1.048 0 0 0-1.048 1.048v8.755h-1.522a1.048 1.048 0 0 0-.856 1.652l4.558 6.459a1.048 1.048 0 0 0 1.712 0l4.558-6.459a1.048 1.048 0 0 0 .079-1.086zm-5.493 5.119l-2.536-3.593h.547a1.048 1.048 0 0 0 1.048-1.048v-8.755h1.881v8.755a1.048 1.048 0 0 0 1.048 1.048h.547z" transform="translate(-64.701 -141.612)"/></g></g></g></svg>