<svg xmlns="http://www.w3.org/2000/svg" viewBox="20551 4912 57 63.453"><defs><style>.cls-1{fill:#00ab0c}</style></defs><g id="order" transform="translate(20526.996 4912)"><g id="Group_361" data-name="Group 361" transform="translate(28.306 35.489)"><g id="Group_360" data-name="Group 360"><path id="Path_972" data-name="Path 972" class="cls-1" d="M57.079 264A1.075 1.075 0 0 0 56 265.077v4.3a1.075 1.075 0 1 0 2.151 0v-4.3A1.075 1.075 0 0 0 57.079 264z" transform="translate(-56.004 -264.002)"/></g></g><g id="Group_363" data-name="Group 363" transform="translate(32.607 37.64)"><g id="Group_362" data-name="Group 362"><path id="Path_973" data-name="Path 973" class="cls-1" d="M89.079 280A1.075 1.075 0 0 0 88 281.077v4.3a1.075 1.075 0 1 0 2.151 0v-4.3A1.075 1.075 0 0 0 89.079 280z" transform="translate(-88.004 -280.002)"/></g></g><g id="Group_365" data-name="Group 365" transform="translate(59.494 41.942)"><g id="Group_364" data-name="Group 364"><path id="Path_974" data-name="Path 974" class="cls-1" d="M301.429 313.472a1.075 1.075 0 0 0-1.2 1.781 6.452 6.452 0 1 1-3.607-1.1 1.075 1.075 0 0 0 0-2.151 8.6 8.6 0 1 0 4.811 1.47z" transform="translate(-288.016 -312.002)"/></g></g><g id="Group_367" data-name="Group 367" transform="translate(24.004)"><g id="Group_366" data-name="Group 366"><path id="Path_975" data-name="Path 975" class="cls-1" d="M80.494 46.973a12.9 12.9 0 0 0-7.021-8.15V15.056a1.075 1.075 0 0 0-.528-.926L49.286.15a1.076 1.076 0 0 0-1.095 0L24.532 14.13c-.023.013-.039.032-.06.047s-.042.032-.063.049a1.06 1.06 0 0 0-.238.262c0 .008-.013.012-.017.019v.008a1.075 1.075 0 0 0-.122.352.952.952 0 0 1-.013.095.94.94 0 0 0-.015.094v27.961a1.075 1.075 0 0 0 .528.926l23.659 13.98a.883.883 0 0 0 .087.037.851.851 0 0 0 .09.039.959.959 0 0 0 .74 0 .869.869 0 0 0 .091-.039c.028-.013.058-.02.086-.037l6.421-3.8a12.9 12.9 0 0 0 24.787-7.155zM48.739 2.324l5.592 3.3-8.291 4.9a1.076 1.076 0 1 0 1.095 1.853l9.312-5.5 5.592 3.3-21.546 12.738-5.592-3.3 9.009-5.323a1.076 1.076 0 1 0-1.095-1.853l-10.028 5.922-5.593-3.3zm-9.321 22.455v7.181l-5.556-3.283V21.5zm16.2 22.442a13.1 13.1 0 0 0-.354 4.672l-5.448 3.221v-3.493a1.075 1.075 0 0 0-2.151 0v3.493L26.155 42.4V16.942l5.557 3.283v9.065a1.075 1.075 0 0 0 .528.927l7.706 4.554a1.076 1.076 0 0 0 1.623-.926v-7.8l6.094 3.6v17.674a1.075 1.075 0 1 0 2.151 0V29.651L69.3 18.133a1.076 1.076 0 0 0-1.095-1.852L48.739 27.788l-6.13-3.623 21.545-12.732 7.169 4.236v22.4a12.853 12.853 0 0 0-15.707 9.152zM68.1 61.3a10.754 10.754 0 1 1 10.75-10.755A10.754 10.754 0 0 1 68.1 61.3z" transform="translate(-24.004)"/></g></g><g id="Group_369" data-name="Group 369" transform="translate(63.808 47.332)"><g id="Group_368" data-name="Group 368"><path id="Path_976" data-name="Path 976" class="cls-1" d="M328.351 352.4a1.075 1.075 0 0 0-1.494 0l-4.079 4.079-.853-.853a1.075 1.075 0 0 0-1.521 1.521l1.613 1.613a1.075 1.075 0 0 0 1.521 0l4.839-4.839a1.075 1.075 0 0 0-.026-1.521z" transform="translate(-320.102 -352.1)"/></g></g></g></svg>