<svg xmlns="http://www.w3.org/2000/svg" viewBox="1418.388 3504 22.1 22.1"><defs><style>.cls-1{fill:#676767}</style></defs><g id="Group_264" data-name="Group 264" transform="translate(1418.388 3504)"><g id="Group_259" data-name="Group 259"><g id="Group_258" data-name="Group 258"><path id="Path_582" data-name="Path 582" class="cls-1" d="M110.844 0h-10.188A5.953 5.953 0 0 0 94.7 5.956v10.188a5.953 5.953 0 0 0 5.956 5.956h10.188a5.953 5.953 0 0 0 5.956-5.956V5.956A5.953 5.953 0 0 0 110.844 0zm4.075 16.144a4.214 4.214 0 0 1-4.232 4.232H100.5a4.214 4.214 0 0 1-4.232-4.232V5.956a4.214 4.214 0 0 1 4.232-4.232h10.188a4.214 4.214 0 0 1 4.232 4.232z" transform="translate(-94.7)"/></g></g><g id="Group_261" data-name="Group 261" transform="translate(6.074 5.956)"><g id="Group_260" data-name="Group 260"><path id="Path_583" data-name="Path 583" class="cls-1" d="M108.489 8.032a4.987 4.987 0 0 0-4.232-4.232h-1.411a5.414 5.414 0 0 0-3.291 1.881 4.862 4.862 0 0 0-.94 3.6 5.414 5.414 0 0 0 1.881 3.292 4.823 4.823 0 0 0 2.978.94h.784a5.414 5.414 0 0 0 3.291-1.881 4.683 4.683 0 0 0 .94-3.6zM104.1 11.95a3.175 3.175 0 0 1-2.351-.627 3.484 3.484 0 0 1-1.249-2.037 3.175 3.175 0 0 1 .627-2.351 3.484 3.484 0 0 1 2.038-1.254h.94a3 3 0 0 1 2.665 2.665 3.29 3.29 0 0 1-2.67 3.604z" transform="translate(-98.575 -3.8)"/></g></g><g id="Group_263" data-name="Group 263" transform="translate(15.674 4.545)"><g id="Group_262" data-name="Group 262"><path id="Path_584" data-name="Path 584" class="cls-1" d="M106.267 3.213a.944.944 0 0 0-1.567.627 1.188 1.188 0 0 0 .313.627.942.942 0 0 0 .627.157 1.188 1.188 0 0 0 .627-.313 1.188 1.188 0 0 0 .313-.627c.001-.157-.156-.314-.313-.471z" transform="translate(-104.7 -2.9)"/></g></g></g></svg>