<svg xmlns="http://www.w3.org/2000/svg" viewBox="21045 4611 57.541 47"><defs><style>.cls-1{fill:#00ab0c}</style></defs><g id="coin" transform="translate(21045 4564.104)"><g id="Group_373" data-name="Group 373" transform="translate(10.76 85.914)"><g id="Group_372" data-name="Group 372"><path id="Path_1007" data-name="Path 1007" class="cls-1" d="M98.246 394.077a2.5 2.5 0 1 0 2.5 2.5 2.5 2.5 0 0 0-2.5-2.5zm0 3.316a.815.815 0 1 1 .815-.815.816.816 0 0 1-.815.815z" transform="translate(-95.745 -394.077)"/></g></g><g id="Group_375" data-name="Group 375" transform="translate(0 46.896)"><g id="Group_374" data-name="Group 374"><path id="Path_1008" data-name="Path 1008" class="cls-1" d="M53.629 50.808a13.357 13.357 0 0 0-17.577-1.15l-.631-.072c-1.9-.218-5.852-.671-6.782-.782a5.016 5.016 0 0 0-3.777 1.111l-8.056 6.664a8.135 8.135 0 0 0-2.668 4.121c-.889 3.221-2.539 8.91-3.7 11.2L6.9 75.436l-.229-.236a1.964 1.964 0 0 0-2.778 0L.574 78.522a1.967 1.967 0 0 0 0 2.778l.88.88a.824.824 0 0 0 1.165-1.165l-.88-.88a.317.317 0 0 1 0-.448l3.319-3.319a.317.317 0 0 1 .448 0l.815.815 5.194 5.194 6.012 6.012a.317.317 0 0 1 0 .448l-3.319 3.319a.317.317 0 0 1-.448 0l-7.415-7.415a.824.824 0 0 0-1.165 1.165l7.42 7.415a1.967 1.967 0 0 0 2.778 0L18.692 90a1.964 1.964 0 0 0 0-2.778l-.237-.237.516-.516a3.739 3.739 0 0 1 1.6-.945l.033-.01 6.038-2.033a11.252 11.252 0 0 0 5.185-3.671l3.024-3.824 8.071-8.071a7.724 7.724 0 0 0 1.283.133v.655a.558.558 0 0 0 .613.486c.317 0 .634-.233.634-.486v-.719a4.1 4.1 0 0 0 3.848-4.352c0-2.875-2.008-3.805-3.847-4.481V54.86c1.48.106 2.029.782 2.537.782.634 0 .93-.8.93-1.2 0-1.036-2.029-1.48-3.467-1.522v-.571c0-.254-.317-.486-.634-.486a.558.558 0 0 0-.613.486v.613c-2.008.211-4.016 1.268-4.016 3.932 0 2.706 2.114 3.467 4.016 4.143v1.634a3.731 3.731 0 0 0-2.75-1.153 13.073 13.073 0 0 0-8.785 3.539l-3.759 3.76a1.4 1.4 0 0 1-1 .41h-.031a2.035 2.035 0 0 1-1.569-1.206v-8.1l2.7-2.221 2.134-.327a13.414 13.414 0 0 0 0 5.787.824.824 0 1 0 1.608-.356 11.756 11.756 0 0 1 .29-6.152c0-.007 0-.014.006-.021v-.008a11.583 11.583 0 0 1 2.852-4.64c.28-.28.577-.549.885-.8l.019-.016a11.708 11.708 0 1 1 4.441 20.434.824.824 0 1 0-.411 1.6A13.349 13.349 0 0 0 53.629 69.7a13.356 13.356 0 0 0 0-18.888zM45.324 61.5a2.472 2.472 0 0 1 1.86 2.367 2.011 2.011 0 0 1-1.86 2.093zM42.3 56.677c0-1.1.845-1.628 2.029-1.776v3.847c-1.119-.422-2.029-.866-2.029-2.071zm-3.774 13.305l-.774-.774a.738.738 0 0 1 0-1.044l1.348-1.347a2.214 2.214 0 0 1 2.836-.244zm-6.869-14.364l-3.118.479a.823.823 0 0 0-.4.178l-3.174 2.612a.824.824 0 0 0-.3.636v8.617a.821.821 0 0 0 .028.212 3.622 3.622 0 0 0 3.188 2.517h.031a3.034 3.034 0 0 0 2.161-.893l3.759-3.76a11.417 11.417 0 0 1 7.532-3.059 2.25 2.25 0 0 1 1.591.584.8.8 0 0 0 .059.066c.175.175.648.649.043 1.551a3.862 3.862 0 0 0-5.124.294L36.587 67a2.385 2.385 0 0 0 0 3.373l.774.774-3.709 3.709a.854.854 0 0 0-.064.071l-3.054 3.863a9.605 9.605 0 0 1-4.423 3.134l-6.017 2.026a5.392 5.392 0 0 0-2.287 1.357l-.516.516-4.61-4.61L8.069 76.6l3.631-3.626a.825.825 0 0 0 .147-.2c1.233-2.349 2.962-8.3 3.883-11.635a6.5 6.5 0 0 1 2.13-3.293l8.056-6.664a3.36 3.36 0 0 1 2.531-.744c.817.1 3.944.457 5.987.691a13.18 13.18 0 0 0-2.777 4.489z" transform="translate(0 -46.896)"/></g></g></g></svg>