<svg xmlns="http://www.w3.org/2000/svg" viewBox="1562.125 111.65 35.257 31.392"><defs><style>.cls-1{fill:none;stroke:#201600;stroke-miterlimit:10;stroke-width:.5px}</style></defs><path id="Path_288" data-name="Path 288" class="cls-1" d="M13.418 26.466c-.136.136-.136.273-.273.545a1.36 1.36 0 0 1-.681.545l-5.178 2.862c-.273.136-.545.409-.818.545A17.947 17.947 0 0 1 .2 17.336 17.278 17.278 0 0 1 17.915.3a17.275 17.275 0 0 1 17.034 17.717A17.258 17.258 0 0 1 28.68 31.1a2.2 2.2 0 0 0-.954-.545l-5.587-2.725a2.308 2.308 0 0 1-1.226-1.908V23.74c.136-.136.273-.409.545-.681a10.818 10.818 0 0 0 1.772-3.543 1.76 1.76 0 0 0 1.226-1.635v-2.317a1.727 1.727 0 0 0-.545-1.226v-3.68s.681-5.178-6.4-5.178-6.268 5.178-6.268 5.178v3.407a1.48 1.48 0 0 0-.545 1.226v2.317a1.565 1.565 0 0 0 .818 1.5 6.021 6.021 0 0 0 .818 2.18 8.532 8.532 0 0 0 1.363 2.18v2.18c-.136.273-.136.545-.273.818" transform="translate(1562.175 111.606)"/></svg>