<svg xmlns="http://www.w3.org/2000/svg" viewBox="21045.107 4323.107 46.068 46.068"><defs><style>.cls-1{fill:#00ab0c}</style></defs><g id="choose" transform="translate(21045.107 4323.107)"><g id="Group_341" data-name="Group 341"><g id="Group_340" data-name="Group 340"><path id="Path_962" data-name="Path 962" class="cls-1" d="M7.294 0a7.294 7.294 0 1 0 7.294 7.294A7.3 7.3 0 0 0 7.294 0zm0 13.053a5.759 5.759 0 1 1 5.759-5.759 5.765 5.765 0 0 1-5.759 5.759z"/></g></g><g id="Group_343" data-name="Group 343" transform="translate(14.588 .033)"><g id="Group_342" data-name="Group 342"><path id="Path_963" data-name="Path 963" class="cls-1" d="M167.265 13.769L160.355.717a.8.8 0 0 0-1.357 0l-6.91 13.053a.767.767 0 0 0 .679 1.126h13.821a.767.767 0 0 0 .679-1.126zm-13.224-.409l5.635-10.643 5.635 10.643z" transform="translate(-151.998 -.34)"/></g></g><g id="Group_345" data-name="Group 345" transform="translate(31.48)"><g id="Group_344" data-name="Group 344"><path id="Path_964" data-name="Path 964" class="cls-1" d="M341.82 0h-13.052a.768.768 0 0 0-.768.768v13.053a.768.768 0 0 0 .768.768h13.052a.768.768 0 0 0 .768-.768V.768A.768.768 0 0 0 341.82 0zm-.768 13.053h-11.516V1.536h11.517z" transform="translate(-328)"/></g></g><g id="Group_347" data-name="Group 347" transform="translate(13.053 18.427)"><g id="Group_346" data-name="Group 346"><path id="Path_965" data-name="Path 965" class="cls-1" d="M153.276 201.214a2.676 2.676 0 0 0-1.92.812 2.674 2.674 0 0 0-3.839 0 2.646 2.646 0 0 0-3.071-.543v-6.8a2.687 2.687 0 0 0-5.375 0v8.517l-2.846 2.846a.764.764 0 0 0-.225.543v3.839a.765.765 0 0 0 .225.543l2.846 2.846v5.057a.768.768 0 0 0 .768.768H155.2a.768.768 0 0 0 .768-.768V203.9a2.69 2.69 0 0 0-2.692-2.686zm1.152 16.892h-13.821V213.5a.765.765 0 0 0-.225-.543l-2.846-2.846v-3.2l1.536-1.536v1.218h1.536v-11.9a1.152 1.152 0 0 1 2.3 0v10.365h1.536V203.9a1.152 1.152 0 0 1 2.3 0v1.152h1.536V203.9a1.152 1.152 0 0 1 2.3 0v1.152h1.536V203.9a1.152 1.152 0 0 1 2.3 0z" transform="translate(-136 -192)"/></g></g></g></svg>