<svg xmlns="http://www.w3.org/2000/svg" viewBox="20548 4316 49.145 54"><defs><style>.cls-1{fill:#00ab0c}</style></defs><g id="skyline" transform="translate(20524.988 4316)"><g id="Group_371" data-name="Group 371" transform="translate(23.011)"><g id="Group_370" data-name="Group 370"><path id="Path_977" data-name="Path 977" class="cls-1" d="M71.247 52.18H69.73V4.551a.91.91 0 0 0-.91-.91H51.831a.91.91 0 0 0-.91.91v3.943H49.1V4.551a.91.91 0 0 0-.91-.91h-3.943V.91a.91.91 0 0 0-1.82 0v2.73h-3.944a.91.91 0 0 0-.91.91v3.944h-2.73a.91.91 0 0 0-.91.91v7.584h-7.585a.91.91 0 0 0-.91.91V52.18h-1.517a.91.91 0 0 0 0 1.82h47.326a.91.91 0 0 0 0-1.82zM39.393 5.461h7.888v3.033h-7.888zM36.359 52.18h-.607v-1.517a.91.91 0 1 0-1.82 0v1.517h-.607v-3.034h3.034zm6.067-23.36v23.36H38.18v-3.944a.91.91 0 0 0-.91-.91h-4.854a.91.91 0 0 0-.91.91v3.944h-4.248V18.809h15.169zm.91-11.831h-7.583v-6.674h15.168v17.6h-6.674v-3.039h2.73a.91.91 0 0 0 0-1.82h-2.73v-3.033h2.73a.91.91 0 0 0 0-1.82h-2.73v-.3a.91.91 0 0 0-.91-.914zm16.08 35.191H44.247V29.73h15.169zm8.494 0h-6.674V27.607a.91.91 0 1 0-1.82 0v.3H57.6v-.3a.91.91 0 0 0-1.82 0v.3h-3.039V5.461H67.91V52.18z" transform="translate(-23.011)"/><path id="Path_978" data-name="Path 978" class="cls-1" d="M254.034 317.958a.91.91 0 0 0 .91-.91v-16.989a.91.91 0 1 0-1.82 0v16.989a.91.91 0 0 0 .91.91z" transform="translate(-228.854 -267.598)"/><path id="Path_979" data-name="Path 979" class="cls-1" d="M288.551 317.958a.91.91 0 0 0 .91-.91v-16.989a.91.91 0 1 0-1.82 0v16.989a.91.91 0 0 0 .91.91z" transform="translate(-259.731 -267.598)"/><path id="Path_980" data-name="Path 980" class="cls-1" d="M323.067 317.958a.91.91 0 0 0 .91-.91v-16.989a.91.91 0 0 0-1.82 0v16.989a.91.91 0 0 0 .91.91z" transform="translate(-290.606 -267.598)"/><path id="Path_981" data-name="Path 981" class="cls-1" d="M334.573 83.574a.91.91 0 0 0 .91-.91V81.45a.91.91 0 1 0-1.82 0v1.214a.91.91 0 0 0 .91.91z" transform="translate(-300.899 -72.046)"/><path id="Path_982" data-name="Path 982" class="cls-1" d="M369.09 83.574a.91.91 0 0 0 .91-.91V81.45a.91.91 0 0 0-1.82 0v1.214a.91.91 0 0 0 .91.91z" transform="translate(-331.775 -72.046)"/><path id="Path_983" data-name="Path 983" class="cls-1" d="M403.607 83.574a.91.91 0 0 0 .91-.91V81.45a.91.91 0 0 0-1.82 0v1.214a.91.91 0 0 0 .91.91z" transform="translate(-362.652 -72.046)"/><path id="Path_984" data-name="Path 984" class="cls-1" d="M334.573 141.1a.91.91 0 0 0 .91-.91v-1.214a.91.91 0 1 0-1.82 0v1.214a.91.91 0 0 0 .91.91z" transform="translate(-300.899 -123.505)"/><path id="Path_985" data-name="Path 985" class="cls-1" d="M369.09 141.1a.91.91 0 0 0 .91-.91v-1.214a.91.91 0 1 0-1.82 0v1.214a.91.91 0 0 0 .91.91z" transform="translate(-331.775 -123.505)"/><path id="Path_986" data-name="Path 986" class="cls-1" d="M403.607 141.1a.91.91 0 0 0 .91-.91v-1.214a.91.91 0 1 0-1.82 0v1.214a.91.91 0 0 0 .91.91z" transform="translate(-362.652 -123.505)"/><path id="Path_987" data-name="Path 987" class="cls-1" d="M334.573 198.63a.91.91 0 0 0 .91-.91v-1.214a.91.91 0 1 0-1.82 0v1.214a.91.91 0 0 0 .91.91z" transform="translate(-300.899 -174.967)"/><path id="Path_988" data-name="Path 988" class="cls-1" d="M369.09 198.63a.91.91 0 0 0 .91-.91v-1.214a.91.91 0 0 0-1.82 0v1.214a.91.91 0 0 0 .91.91z" transform="translate(-331.775 -174.967)"/><path id="Path_989" data-name="Path 989" class="cls-1" d="M403.607 198.63a.91.91 0 0 0 .91-.91v-1.214a.91.91 0 0 0-1.82 0v1.214a.91.91 0 0 0 .91.91z" transform="translate(-362.652 -174.967)"/><path id="Path_990" data-name="Path 990" class="cls-1" d="M92.955 221.641a.91.91 0 0 0 .91-.91v-1.214a.91.91 0 1 0-1.82 0v1.214a.91.91 0 0 0 .91.91z" transform="translate(-84.764 -195.551)"/><path id="Path_991" data-name="Path 991" class="cls-1" d="M127.472 221.641a.91.91 0 0 0 .91-.91v-1.214a.91.91 0 1 0-1.82 0v1.214a.91.91 0 0 0 .91.91z" transform="translate(-115.641 -195.551)"/><path id="Path_992" data-name="Path 992" class="cls-1" d="M161.989 221.641a.91.91 0 0 0 .91-.91v-1.214a.91.91 0 1 0-1.82 0v1.214a.91.91 0 0 0 .91.91z" transform="translate(-146.517 -195.551)"/><path id="Path_993" data-name="Path 993" class="cls-1" d="M92.955 279.169a.91.91 0 0 0 .91-.91v-1.214a.91.91 0 1 0-1.82 0v1.214a.91.91 0 0 0 .91.91z" transform="translate(-84.764 -247.011)"/><path id="Path_994" data-name="Path 994" class="cls-1" d="M127.472 279.169a.91.91 0 0 0 .91-.91v-1.214a.91.91 0 1 0-1.82 0v1.214a.91.91 0 0 0 .91.91z" transform="translate(-115.641 -247.011)"/><path id="Path_995" data-name="Path 995" class="cls-1" d="M161.989 279.169a.91.91 0 0 0 .91-.91v-1.214a.91.91 0 0 0-1.82 0v1.214a.91.91 0 0 0 .91.91z" transform="translate(-146.517 -247.011)"/><path id="Path_996" data-name="Path 996" class="cls-1" d="M92.955 336.7a.91.91 0 0 0 .91-.91v-1.214a.91.91 0 0 0-1.82 0v1.214a.91.91 0 0 0 .91.91z" transform="translate(-84.764 -298.472)"/><path id="Path_997" data-name="Path 997" class="cls-1" d="M127.472 336.7a.91.91 0 0 0 .91-.91v-1.214a.91.91 0 0 0-1.82 0v1.214a.91.91 0 0 0 .91.91z" transform="translate(-115.641 -298.472)"/><path id="Path_998" data-name="Path 998" class="cls-1" d="M161.989 336.7a.91.91 0 0 0 .91-.91v-1.214a.91.91 0 0 0-1.82 0v1.214a.91.91 0 0 0 .91.91z" transform="translate(-146.517 -298.472)"/><path id="Path_999" data-name="Path 999" class="cls-1" d="M92.955 394.225a.91.91 0 0 0 .91-.91V392.1a.91.91 0 1 0-1.82 0v1.214a.91.91 0 0 0 .91.911z" transform="translate(-84.764 -349.933)"/><path id="Path_1000" data-name="Path 1000" class="cls-1" d="M127.472 394.225a.91.91 0 0 0 .91-.91V392.1a.91.91 0 1 0-1.82 0v1.214a.91.91 0 0 0 .91.911z" transform="translate(-115.641 -349.933)"/><path id="Path_1001" data-name="Path 1001" class="cls-1" d="M161.989 394.225a.91.91 0 0 0 .91-.91V392.1a.91.91 0 1 0-1.82 0v1.214a.91.91 0 0 0 .91.911z" transform="translate(-146.517 -349.933)"/><path id="Path_1002" data-name="Path 1002" class="cls-1" d="M403.607 256.158a.91.91 0 0 0 .91-.91v-1.214a.91.91 0 0 0-1.82 0v1.214a.91.91 0 0 0 .91.91z" transform="translate(-362.652 -226.427)"/><path id="Path_1003" data-name="Path 1003" class="cls-1" d="M403.607 313.686a.91.91 0 0 0 .91-.91v-1.214a.91.91 0 0 0-1.82 0v1.214a.91.91 0 0 0 .91.91z" transform="translate(-362.652 -277.888)"/><path id="Path_1004" data-name="Path 1004" class="cls-1" d="M403.607 371.214a.91.91 0 0 0 .91-.91v-1.214a.91.91 0 1 0-1.82 0v1.21a.91.91 0 0 0 .91.914z" transform="translate(-362.652 -329.349)"/><path id="Path_1005" data-name="Path 1005" class="cls-1" d="M403.607 428.742a.91.91 0 0 0 .91-.91v-1.214a.91.91 0 0 0-1.82 0v1.214a.91.91 0 0 0 .91.91z" transform="translate(-362.652 -380.809)"/><path id="Path_1006" data-name="Path 1006" class="cls-1" d="M181.685 127.472a.91.91 0 0 0-.91-.91h-7.281a.91.91 0 1 0 0 1.82h7.281a.91.91 0 0 0 .91-.91z" transform="translate(-156.809 -113.214)"/></g></g></g></svg>