<svg xmlns="http://www.w3.org/2000/svg" width="29.294" height="27.212" viewBox="0 0 29.294 27.212">
  <path id="heart_1_" data-name="heart (1)" d="M1630.372,223.026c-.469-4.692-3.753-8.132-7.975-8.132a7.6,7.6,0,0,1-13.293,0c-4.222,0-7.507,3.44-7.976,8.132a9.263,9.263,0,0,0,.313,3.128,13.753,13.753,0,0,0,4.066,6.725l10.165,9.227,10.321-9.227a13.752,13.752,0,0,0,4.066-6.725,8.952,8.952,0,0,0,.313-3.128Zm-1.407,2.815a11.864,11.864,0,0,1-3.753,6.1l-9.54,8.6-9.383-8.6a12.528,12.528,0,0,1-3.753-6.1,4.993,4.993,0,0,1-.156-2.659c.313-4.066,3.284-7.037,6.725-7.037a6.537,6.537,0,0,1,6.1,4.222l.469,1.251.469-1.251a6.991,6.991,0,0,1,6.255-4.222c3.6,0,6.412,2.971,6.725,7.194.155-.157.311.782-.158,2.5Z" transform="translate(-1601.105 -214.894)" fill="#c13939"/>
</svg>
