<svg xmlns="http://www.w3.org/2000/svg" viewBox="2293.989 207.55 199.602 83.905"><defs><style>.cls-1{fill:#00ab0c}.cls-2,.cls-3,.cls-5{fill:none}.cls-2{stroke:#00ab0c;stroke-width:.283px}.cls-2,.cls-5{stroke-miterlimit:22.926}.cls-4{fill:#004403}.cls-5{stroke:#fff;stroke-width:.709px}</style></defs><g id="Group_180" data-name="Group 180" transform="translate(1410 -300.45)"><g id="Group_52" data-name="Group 52" transform="translate(884 508)"><g id="Group_50" data-name="Group 50"><path id="Path_81" data-name="Path 81" class="cls-1" d="M158.6 41.389h36.887V18.057H199l.391-1.173L180.1.461 179.844.2l-.391.261-11.21 6.387v-6h-5.865v7.824l-11.992 6.908.261 1.173h4.692v27.112h1.173V15.45h-3.65l10.427-6 .261-.13v-7.3h3.519v6.913l.912-.521 11.731-6.778 17.466 15.25h-3v23.332h-35.71v1.173zm-158.5 0h153.154v-1.173H.1z" transform="translate(.03 .061)"/><path id="Path_82" data-name="Path 82" class="cls-2" d="M158.6 41.389h36.887V18.057H199l.391-1.173L180.1.461 179.844.2l-.391.261-11.21 6.387v-6h-5.865v7.824l-11.992 6.908.261 1.173h4.692v27.112h1.173V15.45h-3.65l10.427-6 .261-.13v-7.3h3.519v6.913l.912-.521 11.731-6.778 17.466 15.25h-3v23.332h-35.71v1.173zm-158.5 0h153.154v-1.173H.1z" transform="translate(.03 .061)"/><path id="Rectangle_17" data-name="Rectangle 17" class="cls-3" d="M0 0h199.556v43.926H0z"/></g><g id="Group_51" data-name="Group 51" transform="translate(155.239 42.753)"><path id="Path_83" data-name="Path 83" class="cls-1" d="M119.3 32.9v32.456h1.173V32.9z" transform="translate(-119.039 -32.77)"/><path id="Path_84" data-name="Path 84" class="cls-2" d="M119.3 32.9v32.456h1.173V32.9z" transform="translate(-119.039 -32.77)"/><path id="Rectangle_18" data-name="Rectangle 18" class="cls-3" d="M0 0h1.564v32.847H0z"/></g><path id="Path_85" data-name="Path 85" class="cls-4" d="M118.718 7.821h5.735l14.468 18.769V13.035a3.942 3.942 0 0 0-.912-3 3.185 3.185 0 0 0-2.607-.912v-1.3h8.342v1.171a3.99 3.99 0 0 0-1.955.391 2.723 2.723 0 0 0-1.043 1.3 5.465 5.465 0 0 0-.521 2.085v18.9h-1.564L123.8 12.123v14.468a3.841 3.841 0 0 0 1.043 2.868 4.836 4.836 0 0 0 3 1.043v1.173h-9.124V30.5a3.367 3.367 0 0 0 2.737-1.173 3.639 3.639 0 0 0 1.043-2.607V10.559l-.261-.261a6.6 6.6 0 0 0-1.173-1.043 3.113 3.113 0 0 0-1.173-.261h-1.043V7.821zm-14.207.652a6.183 6.183 0 0 0-5.083 2.607c-1.3 1.694-1.955 4.562-1.955 8.472 0 4.3.652 7.3 1.955 8.863a5.993 5.993 0 0 0 4.953 2.477 5.827 5.827 0 0 0 3.65-1.173 8.122 8.122 0 0 0 2.477-3.519 17.448 17.448 0 0 0 .912-6.387 19.314 19.314 0 0 0-.912-6.778 6.629 6.629 0 0 0-2.477-3.519 6.555 6.555 0 0 0-3.52-1.043zM104.25 7.3a10.706 10.706 0 0 1 5.6 1.564 11.375 11.375 0 0 1 4.171 4.432 13.151 13.151 0 0 1 1.434 6.387 12.88 12.88 0 0 1-1.564 6.387 10.554 10.554 0 0 1-4.171 4.432 10.706 10.706 0 0 1-5.6 1.564 9.824 9.824 0 0 1-5.344-1.566 11.523 11.523 0 0 1-4.041-4.562 13.752 13.752 0 0 1-1.564-6.517 14.812 14.812 0 0 1 1.429-6.386A12.074 12.074 0 0 1 98.645 8.6a15.188 15.188 0 0 1 5.605-1.3zm-33.759.521H81.57v1.173h-2.607a1.015 1.015 0 0 0-.912.391c-.261.13-.391.521-.391 1.043v18.9a1.015 1.015 0 0 0 .391.912 3.744 3.744 0 0 0 1.564.261H83a5.991 5.991 0 0 0 4.432-1.825c1.173-1.173 1.955-3.259 2.477-6.256h1.173l-.652 9.254H70.491V30.5h1.955a2.1 2.1 0 0 0 1.434-.391 1.593 1.593 0 0 0 .391-1.173V10.168a1.183 1.183 0 0 0-.391-.912c-.261-.261-.521-.261-1.043-.261h-2.476V7.821zm-13.816 4.041l-4.3 10.688h8.472zm.391-4.562h1.043l8.6 21.9a2.011 2.011 0 0 0 2.091 1.3h.782v1.173h-9.518V30.5h.782a6.7 6.7 0 0 0 2.085-.261.717.717 0 0 0 .391-.652.784.784 0 0 0-.13-.521l-1.955-5.214h-9.385l-1.173 2.868a6.539 6.539 0 0 0-.391 1.825 1.587 1.587 0 0 0 .782 1.3 3.307 3.307 0 0 0 2.085.521h.782v1.3h-8.6V30.5a3.728 3.728 0 0 0 2.216-.652 4.828 4.828 0 0 0 1.431-2.348zM25 7.821h19.422l.521 8.994h-1.172c-.782-5.344-2.607-7.951-5.735-7.951a2.8 2.8 0 0 0-1.3.261 1.283 1.283 0 0 0-.391 1.043v19.16a1.183 1.183 0 0 0 .391.912 2.6 2.6 0 0 0 1.173.261h2.346v1.173H29.172V30.5h2.737a.922.922 0 0 0 1.043-1.043v-19.42a1.015 1.015 0 0 0-.391-.912c-.261-.261-.652-.261-1.173-.261a4.751 4.751 0 0 0-3.91 2.216c-.912 1.173-1.434 3.128-1.825 5.735H24.48zm-23.2 0h18.9l.391 8.081h-1.043a10.327 10.327 0 0 0-2.086-5.344 4.548 4.548 0 0 0-3.65-1.564H9.621a1.884 1.884 0 0 0-.912.261 2.241 2.241 0 0 0-.13 1.043v8.472h2.085A3.751 3.751 0 0 0 13.4 17.6a6.346 6.346 0 0 0 1.173-3.65h1.173v11.077h-1.172a5.4 5.4 0 0 0-1.173-3.91 4.35 4.35 0 0 0-3-1.173H8.578v9.515a.788.788 0 0 0 .391.782 2.6 2.6 0 0 0 1.173.261h3.65c4.041 0 6.387-2.607 6.908-7.69h1.173l-.391 8.863H1.8V30.5h1.564a1.73 1.73 0 0 0 1.3-.391 1.183 1.183 0 0 0 .391-.912V10.3a1.015 1.015 0 0 0-.391-.912 1.015 1.015 0 0 0-.912-.391H1.8z" transform="translate(.546 2.215)"/><path id="Path_86" data-name="Path 86" class="cls-5" d="M109.085 57.567a3.806 3.806 0 0 0 1.173-.261 5.283 5.283 0 0 0 1.173-.652 5.517 5.517 0 0 0 .912-.652 5.518 5.518 0 0 1 .912-.652l.782-.782.521-.521.261-.261v-.13h-.13c-.13 0-.13.13-.391.261a4.425 4.425 0 0 0-.782.782c-.391.261-.652.521-1.043.782a7.229 7.229 0 0 0-1.043.782l-.782.391c-.13.13-.261.13-.521.13h-.391c-.13 0-.13-.13-.13-.261s.13-.261.261-.521c.13-.13.261-.391.521-.652a7.23 7.23 0 0 0 .782-1.043c.261-.261.391-.521.652-.782a2.727 2.727 0 0 0 .521-.782 1.853 1.853 0 0 0 .261-.782.958.958 0 0 0-.261-.782 1.884 1.884 0 0 0-.912-.261 5.736 5.736 0 0 0-1.3.261c-.521.261-.912.521-1.434.782s-.912.652-1.434.912a18.65 18.65 0 0 1-1.955 1.434c-.652.521-1.173.912-1.564 1.3a7.982 7.982 0 0 1 .521-.782c.261-.261.391-.521.652-.782s.391-.521.652-.782a7.476 7.476 0 0 0 .521-.912 1.853 1.853 0 0 0 .261-.782c0-.261 0-.391-.261-.521a1.1 1.1 0 0 0-.782-.261 2.1 2.1 0 0 0-1.173.391c-.391.261-.912.521-1.434.912a1.571 1.571 0 0 0-.652.652c-.261.261-.521.391-.652.652l-.521.521-.521.521c.261 0 .261.13.261.13h.261q.2 0 .391-.391l.782-.782a3.456 3.456 0 0 1 .782-.652c.261-.13.521-.391.782-.521s.521-.391.782-.391c.13 0 .261-.13.391-.13s.13 0 .261.13v.261c0 .13-.13.261-.261.391s-.261.391-.521.652a2.843 2.843 0 0 1-.521.652c-.13.261-.391.391-.521.652a5.519 5.519 0 0 0-.652.912 5.518 5.518 0 0 1-.652.912 2.849 2.849 0 0 1-.391.652c-.13.261-.13.391 0 .521s.261.13.521.13.391 0 .521-.13c.13 0 .261-.13.521-.261A13.851 13.851 0 0 0 104.523 56a9.132 9.132 0 0 1 1.3-1.043 13.853 13.853 0 0 1 1.434-1.173 10.042 10.042 0 0 1 1.694-1.173 11.465 11.465 0 0 0 1.3-.782c.13-.13.391-.13.521-.261h.391c.13 0 .13.13.13.261s0 .13-.13.261a5.669 5.669 0 0 0-.782.912 7.231 7.231 0 0 0-.782 1.043 5.669 5.669 0 0 0-.782.912c-.261.261-.391.652-.652.912a1.884 1.884 0 0 0-.261.912 1.853 1.853 0 0 0 .261.782c.268-.126.529.004.92.004zm-10.819-5.6c-.261.13-.521.521-.782.782-.391.391-.652.782-1.043 1.173a7.912 7.912 0 0 0-.912 1.3 2.849 2.849 0 0 1-.391.652 1.653 1.653 0 0 0-.13.782 1.853 1.853 0 0 0 .261.782 1.519 1.519 0 0 0 .912.261 5.736 5.736 0 0 0 1.3-.261 5.283 5.283 0 0 0 1.173-.652c.391-.261.652-.521.912-.652.261-.261.521-.391.782-.652a3.456 3.456 0 0 1 .782-.652 2.288 2.288 0 0 1 .652-.521l.13-.13.261-.261v-.13h-.261q-.2 0-.391.391L101 54.7c-.13.13-.391.261-.521.391a2.844 2.844 0 0 1-.652.521c-.391.261-.652.521-.912.652s-.521.391-.782.391a.784.784 0 0 1-.521.13.479.479 0 0 1-.391-.13c-.13-.13-.13-.13-.13-.261s.13-.261.13-.521a7.719 7.719 0 0 0 .521-.782 7.23 7.23 0 0 0 .782-1.043c.391-.521.782-.912 1.043-1.3a8.433 8.433 0 0 1 1.043-1.173c.261-.261.261-.391.261-.521s-.261-.13-.652-.13h-.649c-.261 0-.391.13-.652.261a2.727 2.727 0 0 0-.782.521c-.261.261-.652.391-1.043.782-.391.261-.652.521-1.043.782-.261.261-.521.391-.652.521q-.391.2-.391.391c0 .13-.13.13 0 .13h.261c.13 0 .261-.13.391-.261a2.843 2.843 0 0 1 .652-.521 3.456 3.456 0 0 0 .782-.652c.13-.13.391-.261.652-.521.261-.13.391-.261.652-.391-.391.127-.261-.003-.13-.003zm5.214-6.126a1.933 1.933 0 0 0-.912.13 1.018 1.018 0 0 0-.521.521 1.653 1.653 0 0 0-.13.782c0 .261 0 .391.13.521a.985.985 0 0 0 .521-.13c.261-.13.391-.261.652-.391s.391-.391.521-.521A.842.842 0 0 0 104 46.1a.677.677 0 0 0-.521-.261zm-16.423 6.122a7.739 7.739 0 0 0-1.043.521c-.261.13-.521.391-.782.521-.13.13-.261.13-.391.261s-.261.261-.391.261c-.13.13-.261.13-.261.261-.261.13-.391.391-.521.521v.261h.13l.13-.13c.13-.13.261-.13.261-.261.13-.13.13-.13.261-.13-.391.391-.521.782-.782 1.043a2.416 2.416 0 0 0-.261.912 1.933 1.933 0 0 0 .13.912 1.3 1.3 0 0 0 .652.521 1.653 1.653 0 0 0 .782.13 3.471 3.471 0 0 0 1.564-.391 14.218 14.218 0 0 0 1.434-.782 12.624 12.624 0 0 0 1.173-.912c-.13.261-.261.391-.391.652a1.417 1.417 0 0 0-.13.652.677.677 0 0 0 .261.521 1.1 1.1 0 0 0 .782.261 3.806 3.806 0 0 0 1.173-.261 5.283 5.283 0 0 0 1.173-.652 5.518 5.518 0 0 0 .912-.655 3.456 3.456 0 0 0 .782-.652c.261-.261.521-.391.782-.652a2.288 2.288 0 0 1 .652-.521.973.973 0 0 0 .391-.391c.13-.13.13-.13 0-.261h-.261c-.13 0-.13.13-.261.261a3.456 3.456 0 0 0-.782.652c-.261.261-.652.521-1.043.912a3.961 3.961 0 0 1-.912.652 2.727 2.727 0 0 1-.782.521c-.13.13-.261.13-.521.13h-.391c-.13 0-.13-.13-.13-.261a.988.988 0 0 1 .261-.521 7.719 7.719 0 0 0 .521-.782 4.549 4.549 0 0 0 .782-1.173 11.274 11.274 0 0 0 .912-1.3c.391-.391.652-.912.912-1.173.782-.912 1.3-1.694 1.955-2.477a22.694 22.694 0 0 1 1.564-1.825c.391-.521.912-1.043 1.3-1.564a18.51 18.51 0 0 1 1.564-1.694 20.048 20.048 0 0 1 1.564-1.694l1.3-1.3a.128.128 0 0 0-.13-.13c-.13 0-.261-.13-.391-.13a1.653 1.653 0 0 0-.782.13 2.288 2.288 0 0 0-.652.521l-2.346 2.346c-.782.782-1.434 1.564-2.085 2.346-.912 1.173-1.825 2.216-2.737 3.259a31.171 31.171 0 0 0-2.085 2.868v-.521a.922.922 0 0 0-.782-.782h-1.167c-.391.13-.782.261-1.3.391a17.459 17.459 0 0 0-1.567.778zm3.65-.782c.261 0 .391 0 .521.13s.13.261.13.521a1.733 1.733 0 0 1-.391.912 4.223 4.223 0 0 1-1.043 1.173l-1.173 1.173c-.391.261-.782.652-1.173.912a5.283 5.283 0 0 1-1.173.652 3.316 3.316 0 0 1-.912.261.479.479 0 0 1-.391-.13c-.13 0-.13-.13-.13-.261a3 3 0 0 1 .391-1.173 10.362 10.362 0 0 1 1.694-1.825 9.509 9.509 0 0 1 1.3-1.173 3.078 3.078 0 0 1 1.173-.782 3.837 3.837 0 0 1 1.177-.39zm-10.949 1.564a9.948 9.948 0 0 0-1.043 1.434 11.462 11.462 0 0 1-.782 1.3 4.029 4.029 0 0 0-.261 1.043 1.1 1.1 0 0 0 .261.782 1.884 1.884 0 0 0 .912.261 5.737 5.737 0 0 0 1.3-.261 5.283 5.283 0 0 0 1.173-.652 5.517 5.517 0 0 0 .916-.652 3.961 3.961 0 0 1 .912-.652 3.456 3.456 0 0 1 .782-.652 2.288 2.288 0 0 1 .652-.521l.261-.261v-.13h-.261c-.13.13-.261.13-.261.261-.261.261-.521.391-.782.652a5.669 5.669 0 0 1-.912.782 2.727 2.727 0 0 1-.782.521c-.261.13-.521.391-.782.521-.13 0-.261.13-.391.13s-.261.13-.391.13a.479.479 0 0 1-.391-.13c-.13-.13-.13-.13-.13-.261a.479.479 0 0 1 .13-.391c0-.13.13-.261.13-.391.261-.391.521-.912.912-1.564s.912-1.3 1.434-2.086a28.63 28.63 0 0 1 1.825-2.346l1.955-2.346a9.509 9.509 0 0 1 1.173-1.3c.391-.521.912-1.043 1.3-1.564.521-.521.912-1.043 1.3-1.434A4.978 4.978 0 0 1 91.1 41.8a9.6 9.6 0 0 0 .652-.782.128.128 0 0 0-.13-.13c-.13 0-.261-.13-.391-.13a.977.977 0 0 0-.652.13 2.288 2.288 0 0 0-.652.521c-.782.782-1.694 1.564-2.346 2.346-.782.782-1.434 1.564-2.085 2.346a22.659 22.659 0 0 1-1.696 1.951l-1.564 1.955q-.782.978-1.173 1.564c-.391.391-.782.652-1.173 1.043s-.782.652-1.043.912-.521.391-.521.521l-.13.13v.13s.13.13.13 0a.455.455 0 0 1 .261-.13c.261-.13.391-.391.782-.652-.261-.391 0-.652.391-.782zm-10.427.782a2.7 2.7 0 0 0-.782 1.3A2.1 2.1 0 0 0 68.157 56a1.673 1.673 0 0 0 .521 1.3 2.341 2.341 0 0 0 1.434.391 6.542 6.542 0 0 0 1.564-.261 8.76 8.76 0 0 0 1.564-.782 4.549 4.549 0 0 0 1.173-.782c.13.13.261.13.521.13h.521a2.2 2.2 0 0 0 .652-.261 2.727 2.727 0 0 0 .782-.521 2.843 2.843 0 0 0 .652-.521l.521-.521c.13-.13.391-.261.391-.391.13-.13.13-.261 0-.261h-.261c-.13.13-.261.13-.391.391-.261.13-.391.391-.521.521s-.391.261-.652.521c-.261.13-.521.391-.652.391-.261.13-.391.13-.521.261h-.782a7.815 7.815 0 0 0 1.434-1.564 2.747 2.747 0 0 0 .652-1.434 1.653 1.653 0 0 0-.13-.782 1.8 1.8 0 0 0-.391-.521c-.13-.13-.13-.13-.261-.13h-.261v.912a.784.784 0 0 1-.13.521c-.13 0-.261.13-.521.261s-.391.391-.652.652a3.267 3.267 0 0 0-.521.912 1.417 1.417 0 0 0-.13.652 11.753 11.753 0 0 1-1.3 1.173 3.473 3.473 0 0 1-1.3.782 1.753 1.753 0 0 1-1.043.261c-.261 0-.391 0-.391-.13-.13-.13-.13-.261-.13-.521a1.733 1.733 0 0 1 .391-.912l.782-1.173a8.433 8.433 0 0 1 1.036-1.164c.521-.521 1.043-.912 1.434-1.3a3.473 3.473 0 0 1 1.3-.782.4.4 0 0 1 .261-.13.13.13 0 0 0 0-.261h-.391a6.725 6.725 0 0 0-1.434.261 14.617 14.617 0 0 0-1.694.652 7.685 7.685 0 0 1-1.043.521c-.261.13-.521.391-.782.521-.13.13-.391.261-.652.521-.261.13-.391.391-.521.521l-.261.261c0 .13-.13.13 0 .261h.13c.13 0 .13-.13.261-.261s.261-.261.391-.261a1.8 1.8 0 0 0 .524-.397zM66.463 56a5.518 5.518 0 0 1 .912-.652l.782-.782.521-.521.261-.261v-.13h-.13c-.13 0-.13.13-.391.261a4.424 4.424 0 0 0-.782.782c-.391.261-.652.521-1.043.782-.391.391-.782.521-1.043.782l-.782.391c-.13.13-.261.13-.521.13h-.391c-.13 0-.13-.13-.13-.261s.13-.261.261-.521c.13-.13.261-.391.521-.652s.521-.652.782-.912.391-.521.652-.782a2.727 2.727 0 0 0 .521-.782 1.853 1.853 0 0 0 .261-.782.958.958 0 0 0-.261-.782 1.884 1.884 0 0 0-.912-.261 5.736 5.736 0 0 0-1.3.261c-.521.261-.912.521-1.434.782s-.912.652-1.434.912a18.65 18.65 0 0 1-1.955 1.434c-.652.521-1.173.912-1.564 1.3l.782-1.173c.261-.391.521-.782.912-1.3l.782-1.173a4.963 4.963 0 0 1 .652-.782c.912-.782 1.825-1.564 2.737-2.216s1.694-1.3 2.607-1.955c.782-.652 1.694-1.3 2.346-1.825l2.737-2.346c.912-.782 1.694-1.434 2.477-2.216a7.565 7.565 0 0 0 1.691-1.95 4.284 4.284 0 0 0 .782-1.564v-.652c0-.261-.13-.391-.391-.521-.13-.13-.391-.13-.782-.261a2.455 2.455 0 0 0-1.043.261c-.391.13-.652.391-1.043.521-.391.261-.652.521-1.043.782a9.507 9.507 0 0 0-1.434 1.173c-.521.521-1.173 1.043-1.825 1.694s-1.3 1.3-1.955 2.085c-.652.652-1.3 1.434-1.955 2.086a17.07 17.07 0 0 0-1.564 1.696c-.912.912-1.694 1.955-2.477 2.868s-1.433 1.822-2.085 2.732a3.456 3.456 0 0 0-.782.652c-.261.261-.521.391-.782.652s-.521.391-.652.521-.261.261-.391.261l-.13.13v.13s.13.13.13 0a.455.455 0 0 1 .261-.13c.261-.13.391-.391.652-.652s.521-.391.782-.652c-.261.261-.391.521-.652.782a2.843 2.843 0 0 1-.521.652 11.275 11.275 0 0 1-.912 1.3 5.283 5.283 0 0 0-.652 1.173c-.13.261-.13.391 0 .521s.261.13.521.13.391 0 .521-.13c.13 0 .261-.13.521-.261a13.852 13.852 0 0 0 1.434-1.173 9.132 9.132 0 0 1 1.3-1.043 13.852 13.852 0 0 1 1.438-1.163 10.041 10.041 0 0 1 1.694-1.173 11.464 11.464 0 0 0 1.3-.782c.13-.13.391-.13.521-.261h.391c.13 0 .13.13.13.261s0 .13-.13.261a5.669 5.669 0 0 0-.782.912c-.261.261-.521.652-.782.912a5.669 5.669 0 0 0-.782.912c-.261.261-.391.652-.652.912a1.884 1.884 0 0 0-.261.912 1.852 1.852 0 0 0 .261.782 1.519 1.519 0 0 0 .912.261 3.806 3.806 0 0 0 1.173-.261 5.283 5.283 0 0 0 1.173-.652c.917-.002 1.176-.132 1.439-.396zM61.9 50.4a22.286 22.286 0 0 1 1.434-1.825 13.805 13.805 0 0 1 1.3-1.564c.391-.521.912-1.043 1.434-1.694A23.093 23.093 0 0 1 67.9 43.23q1.564-1.76 2.737-3.128c.912-.912 1.564-1.694 2.216-2.346a5.669 5.669 0 0 1 .912-.782 2.1 2.1 0 0 1 .912-.521 1.853 1.853 0 0 1 .782-.261c.261 0 .391 0 .521.13s.13.261.13.521a2.747 2.747 0 0 1-.652 1.434 16.926 16.926 0 0 1-1.566 1.823l-2.216 2.216c-.782.782-1.694 1.564-2.607 2.346a9.132 9.132 0 0 1-1.3 1.043c-.391.391-.912.652-1.434 1.173-.521.391-1.043.912-1.694 1.434A21.643 21.643 0 0 0 61.9 50.4z" transform="translate(16.697 10.863)"/><path id="Path_87" data-name="Path 87" class="cls-4" d="M109.085 57.567a3.806 3.806 0 0 0 1.173-.261 5.283 5.283 0 0 0 1.173-.652 5.517 5.517 0 0 0 .912-.652 5.518 5.518 0 0 1 .912-.652l.782-.782.521-.521.261-.261v-.13h-.13c-.13 0-.13.13-.391.261a4.425 4.425 0 0 0-.782.782c-.391.261-.652.521-1.043.782a7.229 7.229 0 0 0-1.043.782l-.782.391c-.13.13-.261.13-.521.13h-.391c-.13 0-.13-.13-.13-.261s.13-.261.261-.521c.13-.13.261-.391.521-.652a7.23 7.23 0 0 0 .782-1.043c.261-.261.391-.521.652-.782a2.727 2.727 0 0 0 .521-.782 1.853 1.853 0 0 0 .261-.782.958.958 0 0 0-.261-.782 1.884 1.884 0 0 0-.912-.261 5.736 5.736 0 0 0-1.3.261c-.521.261-.912.521-1.434.782s-.912.652-1.434.912a18.65 18.65 0 0 1-1.955 1.434c-.652.521-1.173.912-1.564 1.3a7.982 7.982 0 0 1 .521-.782c.261-.261.391-.521.652-.782s.391-.521.652-.782a7.476 7.476 0 0 0 .521-.912 1.853 1.853 0 0 0 .261-.782c0-.261 0-.391-.261-.521a1.1 1.1 0 0 0-.782-.261 2.1 2.1 0 0 0-1.173.391c-.391.261-.912.521-1.434.912a1.571 1.571 0 0 0-.652.652c-.261.261-.521.391-.652.652l-.521.521-.521.521c.261 0 .261.13.261.13h.261q.2 0 .391-.391l.782-.782a3.456 3.456 0 0 1 .782-.652c.261-.13.521-.391.782-.521s.521-.391.782-.391c.13 0 .261-.13.391-.13s.13 0 .261.13v.261c0 .13-.13.261-.261.391s-.261.391-.521.652a2.843 2.843 0 0 1-.521.652c-.13.261-.391.391-.521.652a5.519 5.519 0 0 0-.652.912 5.518 5.518 0 0 1-.652.912 2.849 2.849 0 0 1-.391.652c-.13.261-.13.391 0 .521s.261.13.521.13.391 0 .521-.13c.13 0 .261-.13.521-.261A13.851 13.851 0 0 0 104.523 56a9.132 9.132 0 0 1 1.3-1.043 13.853 13.853 0 0 1 1.434-1.173 10.042 10.042 0 0 1 1.694-1.173 11.465 11.465 0 0 0 1.3-.782c.13-.13.391-.13.521-.261h.391c.13 0 .13.13.13.261s0 .13-.13.261a5.669 5.669 0 0 0-.782.912 7.231 7.231 0 0 0-.782 1.043 5.669 5.669 0 0 0-.782.912c-.261.261-.391.652-.652.912a1.884 1.884 0 0 0-.261.912 1.853 1.853 0 0 0 .261.782c.261-.13.521 0 .912 0m-10.819-5.6c-.261.13-.521.521-.782.782-.391.391-.652.782-1.043 1.173a7.912 7.912 0 0 0-.912 1.3 2.849 2.849 0 0 1-.391.652 1.653 1.653 0 0 0-.13.782 1.853 1.853 0 0 0 .261.782 1.519 1.519 0 0 0 .912.261 5.736 5.736 0 0 0 1.3-.261 5.283 5.283 0 0 0 1.173-.652c.391-.261.652-.521.912-.652.261-.261.521-.391.782-.652a3.456 3.456 0 0 1 .782-.652 2.288 2.288 0 0 1 .652-.521l.13-.13.261-.261v-.13h-.261q-.2 0-.391.391L101 54.7c-.13.13-.391.261-.521.391a2.844 2.844 0 0 1-.652.521c-.391.261-.652.521-.912.652s-.521.391-.782.391a.784.784 0 0 1-.521.13.479.479 0 0 1-.391-.13c-.13-.13-.13-.13-.13-.261s.13-.261.13-.521a7.719 7.719 0 0 0 .521-.782 7.23 7.23 0 0 0 .782-1.043c.391-.521.782-.912 1.043-1.3a8.433 8.433 0 0 1 1.043-1.173c.261-.261.261-.391.261-.521s-.261-.13-.652-.13h-.649c-.261 0-.391.13-.652.261a2.727 2.727 0 0 0-.782.521c-.261.261-.652.391-1.043.782-.391.261-.652.521-1.043.782-.261.261-.521.391-.652.521q-.391.2-.391.391c0 .13-.13.13 0 .13h.261c.13 0 .261-.13.391-.261a2.843 2.843 0 0 1 .652-.521 3.456 3.456 0 0 0 .782-.652c.13-.13.391-.261.652-.521.261-.13.391-.261.652-.391-.391.127-.261-.003-.13-.003zm5.214-6.126a1.933 1.933 0 0 0-.912.13 1.018 1.018 0 0 0-.521.521 1.653 1.653 0 0 0-.13.782c0 .261 0 .391.13.521a.985.985 0 0 0 .521-.13c.261-.13.391-.261.652-.391s.391-.391.521-.521A.842.842 0 0 0 104 46.1a.677.677 0 0 0-.521-.261zm-16.415 6.126a7.739 7.739 0 0 0-1.043.521c-.261.13-.521.391-.782.521-.13.13-.261.13-.391.261s-.261.261-.391.261c-.13.13-.261.13-.261.261-.261.13-.391.391-.521.521v.261h.13l.13-.13c.13-.13.261-.13.261-.261.13-.13.13-.13.261-.13-.391.391-.521.782-.782 1.043a2.416 2.416 0 0 0-.261.912 1.933 1.933 0 0 0 .13.912 1.3 1.3 0 0 0 .652.521 1.653 1.653 0 0 0 .782.13 3.471 3.471 0 0 0 1.564-.391 14.218 14.218 0 0 0 1.434-.782 12.624 12.624 0 0 0 1.173-.912c-.13.261-.261.391-.391.652a1.417 1.417 0 0 0-.13.652.677.677 0 0 0 .261.521 1.1 1.1 0 0 0 .782.261 3.806 3.806 0 0 0 1.173-.261 5.283 5.283 0 0 0 1.173-.652 5.518 5.518 0 0 0 .912-.655 3.456 3.456 0 0 0 .782-.652c.261-.261.521-.391.782-.652a2.288 2.288 0 0 1 .652-.521.973.973 0 0 0 .391-.391c.13-.13.13-.13 0-.261h-.261c-.13 0-.13.13-.261.261a3.456 3.456 0 0 0-.782.652c-.261.261-.652.521-1.043.912a3.961 3.961 0 0 1-.912.652 2.727 2.727 0 0 1-.782.521c-.13.13-.261.13-.521.13h-.391c-.13 0-.13-.13-.13-.261a.988.988 0 0 1 .261-.521 7.719 7.719 0 0 0 .521-.782 4.549 4.549 0 0 0 .782-1.173 11.274 11.274 0 0 0 .912-1.3c.391-.391.652-.912.912-1.173.782-.912 1.3-1.694 1.955-2.477a22.694 22.694 0 0 1 1.564-1.825c.391-.521.912-1.043 1.3-1.564a18.51 18.51 0 0 1 1.564-1.694 20.048 20.048 0 0 1 1.564-1.694l1.3-1.3a.128.128 0 0 0-.13-.13c-.13 0-.261-.13-.391-.13a1.653 1.653 0 0 0-.782.13 2.288 2.288 0 0 0-.652.521l-2.346 2.346c-.782.782-1.434 1.564-2.085 2.346-.912 1.173-1.825 2.216-2.737 3.259a31.171 31.171 0 0 0-2.085 2.868v-.521a.922.922 0 0 0-.782-.782h-1.167c-.391.13-.782.261-1.3.391a17.459 17.459 0 0 0-1.567.778zm3.65-.782c.261 0 .391 0 .521.13s.13.261.13.521a1.733 1.733 0 0 1-.391.912 4.223 4.223 0 0 1-1.043 1.173l-1.173 1.173c-.391.261-.782.652-1.173.912a5.283 5.283 0 0 1-1.173.652 3.316 3.316 0 0 1-.912.261.479.479 0 0 1-.391-.13c-.13 0-.13-.13-.13-.261a3 3 0 0 1 .391-1.173 10.362 10.362 0 0 1 1.694-1.825 9.509 9.509 0 0 1 1.3-1.173 3.078 3.078 0 0 1 1.173-.782 3.837 3.837 0 0 1 1.177-.39zm-10.949 1.564a9.948 9.948 0 0 0-1.043 1.434 11.462 11.462 0 0 1-.782 1.3 4.029 4.029 0 0 0-.261 1.043 1.1 1.1 0 0 0 .261.782 1.884 1.884 0 0 0 .912.261 5.737 5.737 0 0 0 1.3-.261 5.283 5.283 0 0 0 1.173-.652 5.517 5.517 0 0 0 .916-.652 3.961 3.961 0 0 1 .912-.652 3.456 3.456 0 0 1 .782-.652 2.288 2.288 0 0 1 .652-.521l.261-.261v-.13h-.261c-.13.13-.261.13-.261.261-.261.261-.521.391-.782.652a5.669 5.669 0 0 1-.912.782 2.727 2.727 0 0 1-.782.521c-.261.13-.521.391-.782.521-.13 0-.261.13-.391.13s-.261.13-.391.13a.479.479 0 0 1-.391-.13c-.13-.13-.13-.13-.13-.261a.479.479 0 0 1 .13-.391c0-.13.13-.261.13-.391.261-.391.521-.912.912-1.564s.912-1.3 1.434-2.086a28.63 28.63 0 0 1 1.825-2.346l1.955-2.346a9.509 9.509 0 0 1 1.173-1.3c.391-.521.912-1.043 1.3-1.564.521-.521.912-1.043 1.3-1.434A4.978 4.978 0 0 1 91.1 41.8a9.6 9.6 0 0 0 .652-.782.128.128 0 0 0-.13-.13c-.13 0-.261-.13-.391-.13a.977.977 0 0 0-.652.13 2.288 2.288 0 0 0-.652.521c-.782.782-1.694 1.564-2.346 2.346-.782.782-1.434 1.564-2.085 2.346a22.659 22.659 0 0 1-1.696 1.951l-1.564 1.955q-.782.978-1.173 1.564c-.391.391-.782.652-1.173 1.043s-.782.652-1.043.912-.521.391-.521.521l-.13.13v.13s.13.13.13 0a.455.455 0 0 1 .261-.13c.261-.13.391-.391.782-.652-.261-.391 0-.652.391-.782zm-10.427.782a2.7 2.7 0 0 0-.782 1.3A2.1 2.1 0 0 0 68.157 56a1.673 1.673 0 0 0 .521 1.3 2.341 2.341 0 0 0 1.434.391 6.542 6.542 0 0 0 1.564-.261 8.76 8.76 0 0 0 1.564-.782 4.549 4.549 0 0 0 1.173-.782c.13.13.261.13.521.13h.521a2.2 2.2 0 0 0 .652-.261 2.727 2.727 0 0 0 .782-.521 2.843 2.843 0 0 0 .652-.521l.521-.521c.13-.13.391-.261.391-.391.13-.13.13-.261 0-.261h-.261c-.13.13-.261.13-.391.391-.261.13-.391.391-.521.521s-.391.261-.652.521c-.261.13-.521.391-.652.391-.261.13-.391.13-.521.261h-.782a7.815 7.815 0 0 0 1.434-1.564 2.747 2.747 0 0 0 .652-1.434 1.653 1.653 0 0 0-.13-.782 1.8 1.8 0 0 0-.391-.521c-.13-.13-.13-.13-.261-.13h-.261v.912a.784.784 0 0 1-.13.521c-.13 0-.261.13-.521.261s-.391.391-.652.652a3.267 3.267 0 0 0-.521.912 1.417 1.417 0 0 0-.13.652 11.753 11.753 0 0 1-1.3 1.173 3.473 3.473 0 0 1-1.3.782 1.753 1.753 0 0 1-1.043.261c-.261 0-.391 0-.391-.13-.13-.13-.13-.261-.13-.521a1.733 1.733 0 0 1 .391-.912l.782-1.173a8.433 8.433 0 0 1 1.036-1.164c.521-.521 1.043-.912 1.434-1.3a3.473 3.473 0 0 1 1.3-.782.4.4 0 0 1 .261-.13.13.13 0 0 0 0-.261h-.391a6.725 6.725 0 0 0-1.434.261 14.617 14.617 0 0 0-1.694.652 7.685 7.685 0 0 1-1.043.521c-.261.13-.521.391-.782.521-.13.13-.391.261-.652.521-.261.13-.391.391-.521.521l-.261.261c0 .13-.13.13 0 .261h.13c.13 0 .13-.13.261-.261s.261-.261.391-.261a1.8 1.8 0 0 0 .524-.397zM66.463 56a5.518 5.518 0 0 1 .912-.652l.782-.782.521-.521.261-.261v-.13h-.13c-.13 0-.13.13-.391.261a4.424 4.424 0 0 0-.782.782c-.391.261-.652.521-1.043.782-.391.391-.782.521-1.043.782l-.782.391c-.13.13-.261.13-.521.13h-.391c-.13 0-.13-.13-.13-.261s.13-.261.261-.521c.13-.13.261-.391.521-.652s.521-.652.782-.912.391-.521.652-.782a2.727 2.727 0 0 0 .521-.782 1.853 1.853 0 0 0 .261-.782.958.958 0 0 0-.261-.782 1.884 1.884 0 0 0-.912-.261 5.736 5.736 0 0 0-1.3.261c-.521.261-.912.521-1.434.782s-.912.652-1.434.912a18.65 18.65 0 0 1-1.955 1.434c-.652.521-1.173.912-1.564 1.3l.782-1.173c.261-.391.521-.782.912-1.3l.782-1.173a4.963 4.963 0 0 1 .652-.782c.912-.782 1.825-1.564 2.737-2.216s1.694-1.3 2.607-1.955c.782-.652 1.694-1.3 2.346-1.825l2.737-2.346c.912-.782 1.694-1.434 2.477-2.216a7.565 7.565 0 0 0 1.691-1.95 4.284 4.284 0 0 0 .782-1.564v-.652c0-.261-.13-.391-.391-.521-.13-.13-.391-.13-.782-.261a2.455 2.455 0 0 0-1.043.261c-.391.13-.652.391-1.043.521-.391.261-.652.521-1.043.782a9.507 9.507 0 0 0-1.434 1.173c-.521.521-1.173 1.043-1.825 1.694s-1.3 1.3-1.955 2.085c-.652.652-1.3 1.434-1.955 2.086a17.07 17.07 0 0 0-1.564 1.696c-.912.912-1.694 1.955-2.477 2.868s-1.433 1.822-2.085 2.732a3.456 3.456 0 0 0-.782.652c-.261.261-.521.391-.782.652s-.521.391-.652.521-.261.261-.391.261l-.13.13v.13s.13.13.13 0a.455.455 0 0 1 .261-.13c.261-.13.391-.391.652-.652s.521-.391.782-.652c-.261.261-.391.521-.652.782a2.843 2.843 0 0 1-.521.652 11.275 11.275 0 0 1-.912 1.3 5.283 5.283 0 0 0-.652 1.173c-.13.261-.13.391 0 .521s.261.13.521.13.391 0 .521-.13c.13 0 .261-.13.521-.261a13.852 13.852 0 0 0 1.434-1.173 9.132 9.132 0 0 1 1.3-1.043 13.852 13.852 0 0 1 1.438-1.163 10.041 10.041 0 0 1 1.694-1.173 11.464 11.464 0 0 0 1.3-.782c.13-.13.391-.13.521-.261h.391c.13 0 .13.13.13.261s0 .13-.13.261a5.669 5.669 0 0 0-.782.912c-.261.261-.521.652-.782.912a5.669 5.669 0 0 0-.782.912c-.261.261-.391.652-.652.912a1.884 1.884 0 0 0-.261.912 1.852 1.852 0 0 0 .261.782 1.519 1.519 0 0 0 .912.261 3.806 3.806 0 0 0 1.173-.261 5.283 5.283 0 0 0 1.173-.652c.917-.002 1.176-.132 1.439-.396zM61.9 50.4a22.286 22.286 0 0 1 1.434-1.825 13.805 13.805 0 0 1 1.3-1.564c.391-.521.912-1.043 1.434-1.694A23.093 23.093 0 0 1 67.9 43.23q1.564-1.76 2.737-3.128c.912-.912 1.564-1.694 2.216-2.346a5.669 5.669 0 0 1 .912-.782 2.1 2.1 0 0 1 .912-.521 1.853 1.853 0 0 1 .782-.261c.261 0 .391 0 .521.13s.13.261.13.521a2.747 2.747 0 0 1-.652 1.434 16.926 16.926 0 0 1-1.566 1.823l-2.216 2.216c-.782.782-1.694 1.564-2.607 2.346a9.132 9.132 0 0 1-1.3 1.043c-.391.391-.912.652-1.434 1.173-.521.391-1.043.912-1.694 1.434A21.643 21.643 0 0 0 61.9 50.4z" transform="translate(16.697 10.863)"/><path id="Path_88" data-name="Path 88" class="cls-5" d="M106.632 48.534a7.739 7.739 0 0 0-1.043.521c-.261.13-.521.391-.782.521-.13.13-.261.13-.391.261s-.261.261-.391.261l-.261.261c-.261.13-.391.391-.521.521a.4.4 0 0 0-.13.261h.13l.13-.13c.13-.13.261-.13.261-.261.13-.13.13-.13.261-.13-.391.391-.521.782-.782 1.043a2.417 2.417 0 0 0-.261.912c0 .391 0 .782.13.912a.717.717 0 0 0 .652.391 1.653 1.653 0 0 0 .782.13 2.971 2.971 0 0 0 1.434-.391c.521-.261.912-.521 1.434-.782a4.581 4.581 0 0 0 1.173-.912 4.549 4.549 0 0 0-.782 1.173c-.261.391-.652.912-.912 1.3a6.121 6.121 0 0 0-.782 1.173c-.652.391-1.3.782-1.825 1.043-.521.391-1.173.652-1.694 1.043s-1.173.652-1.825 1.173c-.652.391-1.434.912-2.346 1.434-.652.391-1.173.782-1.955 1.3-.652.521-1.3.912-1.955 1.434a22.694 22.694 0 0 0-1.825 1.564 6.912 6.912 0 0 0-1.3 1.564 4.491 4.491 0 0 0-.652 1.434 2.541 2.541 0 0 0 .13 1.043 1.3 1.3 0 0 0 .652.521 2.218 2.218 0 0 0 .912.13 3.609 3.609 0 0 0 1.173-.13 12.7 12.7 0 0 0 1.434-.652 18.916 18.916 0 0 0 2.477-1.564 20.417 20.417 0 0 0 2.737-2.216 24.612 24.612 0 0 0 2.607-2.607c.261-.261.652-.782 1.043-1.173a19.159 19.159 0 0 0 1.3-1.694c.521-.652.912-1.3 1.434-1.955s.912-1.3 1.3-1.825a11.462 11.462 0 0 1 1.3-.782c.521-.261.912-.652 1.434-.912a9.948 9.948 0 0 0 1.434-1.043c.391-.391.782-.652 1.173-1.043.391-.261.652-.652 1.043-.912l.261-.261c.13-.13.13-.13.13-.261V50.1h-.13c-.13 0-.13.13-.261.13-.391.391-.782.652-1.173 1.043-.391.261-.782.652-1.173.912a11.275 11.275 0 0 1-1.3.912c-.391.261-.912.521-1.3.782a12.02 12.02 0 0 1-1.043.652l1.173-1.564a10.873 10.873 0 0 0 1.043-1.564 4.527 4.527 0 0 0 .782-1.173 11.4 11.4 0 0 1 1.043-1.3c.261-.391.652-.782.912-1.173.261-.261.261-.391.13-.521s-.261-.13-.652-.13a.784.784 0 0 0-.521.13c-.13.13-.391.261-.521.391-.261.13-.391.391-.652.782a1.653 1.653 0 0 0-.13-.782 1.2 1.2 0 0 0-.782-.521h-1.173c-.391.13-.782.261-1.3.391-.005.515-.527.776-.918 1.037zm3.519-.782c.261 0 .391 0 .521.13s.13.261.13.521a1.733 1.733 0 0 1-.391.912 4.223 4.223 0 0 1-1.043 1.173l-1.168 1.174c-.391.261-.782.652-1.173.912a5.283 5.283 0 0 1-1.173.652 3.316 3.316 0 0 1-.912.261.479.479 0 0 1-.391-.13c-.13 0-.13-.13-.13-.261a3 3 0 0 1 .391-1.173A10.361 10.361 0 0 1 106.5 50.1a9.51 9.51 0 0 1 1.3-1.173 3.078 3.078 0 0 1 1.173-.782 5.445 5.445 0 0 1 1.179-.393zm-4.3 8.472a7.52 7.52 0 0 1-1.043 1.3c-.391.521-.912 1.173-1.3 1.694a18.649 18.649 0 0 0-1.434 1.955c-1.043 1.3-1.955 2.346-2.737 3.259a18.32 18.32 0 0 1-2.346 2.216 12.227 12.227 0 0 1-1.825 1.3l-.782.391a8.308 8.308 0 0 1-.912.261h-.782a.416.416 0 0 1-.391-.391.977.977 0 0 1-.13-.652A3.705 3.705 0 0 1 92.686 66a14.754 14.754 0 0 1 1.3-1.694 13.058 13.058 0 0 1 1.955-1.694c.782-.521 1.434-1.173 2.216-1.694a18.3 18.3 0 0 0 2.346-1.564l1.955-1.173c.521-.391 1.173-.652 1.694-1.043a7.329 7.329 0 0 0 1.698-.914z" transform="translate(27.491 14.292)"/><path id="Path_89" data-name="Path 89" class="cls-4" d="M106.632 48.534a7.739 7.739 0 0 0-1.043.521c-.261.13-.521.391-.782.521-.13.13-.261.13-.391.261s-.261.261-.391.261l-.261.261c-.261.13-.391.391-.521.521a.4.4 0 0 0-.13.261h.13l.13-.13c.13-.13.261-.13.261-.261.13-.13.13-.13.261-.13-.391.391-.521.782-.782 1.043a2.417 2.417 0 0 0-.261.912c0 .391 0 .782.13.912a.717.717 0 0 0 .652.391 1.653 1.653 0 0 0 .782.13 2.971 2.971 0 0 0 1.434-.391c.521-.261.912-.521 1.434-.782a4.581 4.581 0 0 0 1.173-.912 4.549 4.549 0 0 0-.782 1.173c-.261.391-.652.912-.912 1.3a6.121 6.121 0 0 0-.782 1.173c-.652.391-1.3.782-1.825 1.043-.521.391-1.173.652-1.694 1.043s-1.173.652-1.825 1.173c-.652.391-1.434.912-2.346 1.434-.652.391-1.173.782-1.955 1.3-.652.521-1.3.912-1.955 1.434a22.694 22.694 0 0 0-1.825 1.564 6.912 6.912 0 0 0-1.3 1.564 4.491 4.491 0 0 0-.652 1.434 2.541 2.541 0 0 0 .13 1.043 1.3 1.3 0 0 0 .652.521 2.218 2.218 0 0 0 .912.13 3.609 3.609 0 0 0 1.173-.13 12.7 12.7 0 0 0 1.434-.652 18.916 18.916 0 0 0 2.477-1.564 20.417 20.417 0 0 0 2.737-2.216 24.612 24.612 0 0 0 2.607-2.607c.261-.261.652-.782 1.043-1.173a19.159 19.159 0 0 0 1.3-1.694c.521-.652.912-1.3 1.434-1.955s.912-1.3 1.3-1.825a11.462 11.462 0 0 1 1.3-.782c.521-.261.912-.652 1.434-.912a9.948 9.948 0 0 0 1.434-1.043c.391-.391.782-.652 1.173-1.043.391-.261.652-.652 1.043-.912l.261-.261c.13-.13.13-.13.13-.261V50.1h-.13c-.13 0-.13.13-.261.13-.391.391-.782.652-1.173 1.043-.391.261-.782.652-1.173.912a11.275 11.275 0 0 1-1.3.912c-.391.261-.912.521-1.3.782a12.02 12.02 0 0 1-1.043.652l1.173-1.564a10.873 10.873 0 0 0 1.043-1.564 4.527 4.527 0 0 0 .782-1.173 11.4 11.4 0 0 1 1.043-1.3c.261-.391.652-.782.912-1.173.261-.261.261-.391.13-.521s-.261-.13-.652-.13a.784.784 0 0 0-.521.13c-.13.13-.391.261-.521.391-.261.13-.391.391-.652.782a1.653 1.653 0 0 0-.13-.782 1.2 1.2 0 0 0-.782-.521h-1.173c-.391.13-.782.261-1.3.391 0 .521-.521.782-.912 1.043m3.519-.782c.261 0 .391 0 .521.13s.13.261.13.521a1.733 1.733 0 0 1-.391.912 4.223 4.223 0 0 1-1.043 1.173l-1.174 1.168c-.391.261-.782.652-1.173.912a5.283 5.283 0 0 1-1.173.652 3.316 3.316 0 0 1-.912.261.479.479 0 0 1-.391-.13c-.13 0-.13-.13-.13-.261a3 3 0 0 1 .391-1.173A10.361 10.361 0 0 1 106.5 50.1a9.51 9.51 0 0 1 1.3-1.173 3.078 3.078 0 0 1 1.173-.782 5.445 5.445 0 0 1 1.179-.393zm-4.3 8.472a7.52 7.52 0 0 1-1.043 1.3c-.391.521-.912 1.173-1.3 1.694a18.649 18.649 0 0 0-1.434 1.955c-1.043 1.3-1.955 2.346-2.737 3.259a18.32 18.32 0 0 1-2.346 2.216 12.227 12.227 0 0 1-1.825 1.3l-.782.391a8.308 8.308 0 0 1-.912.261h-.782a.416.416 0 0 1-.391-.391.977.977 0 0 1-.13-.652A3.705 3.705 0 0 1 92.686 66a14.754 14.754 0 0 1 1.3-1.694 13.058 13.058 0 0 1 1.955-1.694c.782-.521 1.434-1.173 2.216-1.694a18.3 18.3 0 0 0 2.346-1.564l1.955-1.173c.521-.391 1.173-.652 1.694-1.043a7.329 7.329 0 0 0 1.698-.914z" transform="translate(27.491 14.292)"/></g></g></svg>