<svg xmlns="http://www.w3.org/2000/svg" viewBox="0 0 1138.578 624.705"><defs><style>.cls-1{fill:#00ab0c}.cls-2{fill:#ccc;stroke:#fff;stroke-width:.5px}.cls-3{clip-path:url(#clip-path)}.cls-4{fill:#505050;font-size:17px;font-family:Helvetica}</style><clipPath id="clip-path"><path id="Path_1333" data-name="Path 1333" class="cls-1" d="M0-162.92h23.871v44.24H0z" transform="translate(0 162.92)"/></clipPath></defs><g id="Group_425" data-name="Group 425" transform="translate(-593.193 -1768.973)"><g id="kazakhstanHigh" transform="translate(593.49 1769.225)"><path id="KZ-AKM" class="cls-2" d="M385.051 117.74l4.5.273 2.371 4.972 4.167-1.854 5.317-.819.2 4.426h8.952l2.831 1.523 3.089.388 1.782-1.02 5.906 2.1-.316-9.613 6.207-.172 1.638 2.04 3.98 1.609 2.946 2.7.762.431 1.617-1.61-.719-1.006.848-1.48 1.106.848 3.492-3.808-.316-1.365-1.71-.69-.618-3.132 4.066.086 1.092-2.428 1.193-.69 3.075.417.7-2.27.776-.129.532-2.673 2-1.207 1.164-.115.474-1.71.963.072 1.236-1.264.762.259 2.385-1.193-2.371-2.7 1.538.316-1.322-4.584 4.3-3.966-1.638-2.27.991-.316.1-1.954-.489-1.595-1.94-.158.359-3.3-3.118-.244-.876-1.825-1.538-.517-.129-1.581-2.012-2.917.848-1.308 1.178-.115.8-.33.057-1.178 1.423-1.078.733.848.862-1.71-1.365.086-.086-2.371 4.11.115.632-.747-.747-.848.23-.776-.92-1.451 2.155.158.244-1.164 2.744.2.129 1.408 3.937-.287-.086-2.4 2.744.216.086 2 1.753.345.33 1.207 1.164.3.5 1.624.072 2.184 1.926.546.905-2.1-1.552-.33-.462-2.219 1.178-.115.517-2.342 1.552.33.661-1.336 1.365-.086 1.049-1.121 6.064.1.273 2.213 1.538.532.316 4.785-.675 1.523.948.474.632-.934 3.463.876 2-.819.244 2.586-1.207.69.316 1.221-1.178.1.115 1.379-.833.733 5.46-.144.431-.747.977.072.144.8 2.845 3.592.417 2.213 2.716-.359-.517-3.391 2.529-.374.675-3.894 11.8-.33-.115 1.379.374.029-.417 2.73 4.512.8.3.833 2.471.029 1.049-1.092.776-.129.661-.92 1.739-.244.934-1.882 2.845.072-.172 1.767 5.791 6.294-1.121 1.681-.905 3.276.891 2.457-1.782.8.029 1.581 1.351 1.523.373 1.811 8.147 1.02 6.61-.5 1.308-3.42 5.388-1.193 1.193 1.121 2.6-1.293 3.018-.029.905-1.293.948-.086.589 1.48.014 3.405 1.178 1.336.776 8.262 3.578-1.523 5.345 2.716 3.793-.086.345 1.839 2.084-.1 2 3.837 10.806.8.086.8 1.466.216.647 28.681.589 1.25-1.71.33-3.923 3.089-.879 1.056-.144 8.463 5.115-2.515 1.422 3.291 3.29.3 2.73 1.566-.69 1.049-1.494.158-1.092 1.365-2.845-.8-6.222 4.066-.417 3.19-3.018 3.564-4.785-1.423-1.81 2.788-.8-2.385-.762.273.445.819-2.285.647-.762-1.25-1.351.575-.46 2.227 1.221.546 1.724 3.837-.287.905 1.006.7 1.494-3.2 1.437.2 3.635 1.638-4.153 3.966-7.414 2.4.991 2.4-1.552.733-2.4.244-1.135 1.925-4.512-1.911-1.638 2.989-1.106.244-.273.718.8.848-1.882 2.2-4.038.244-.172 1.48-1.02-.5-1.422 1.322.79 1.035-2.026 1.8 3.032 2.055-2.313 1.207-3.2-2.069-1.106 1.724-2.069.69.618 4.167-1.868.517.388 1.351-3.492-2.658-5.863.618-.69 1.408-1.739-.575 2.558-3.607-.5-2.1.848-1.207-.259-.963-.848-.474 1.911-2.572-3.161-2.8-2.012.144-.374-1.537-1.9.718-.4-1.351-1.293.23.057 1.121-4.181 1.782-.79 4.2-2-.029-.905 1.767-2.5-.273-2.184 1.811.589 1.351-3.693 2.586-1.983-.029-.431.69-1.839.374-.359 9.2-2.012-3.52-6.021 2.7 1.739 4.411-.891 1.753-3.089.417-4.009 2.558-2.256 1.063-1.724-.891.115-3.118 2.486-3.621-.589-1.336-1.308.431-.848-2.472-8.693 2.515-1.25-.115-.948.474-1.236-.3-1.652.4.675-3.607-1.624-.144-.819-.991-1.049-2.5-.733.129-.848 1.394-.517-2.443-3.793 2.069.991 3.219-2.3 1.451-1.25-.1-.819-.991-.287 1.264.819.991-.345 1.983-.733.115-1.193-1.006-3.592 1.9-3.621-2.313-1.624-.129-.46-1.135-2.244.71-.963-1.724 2-2.227 1.164-5.432 1.236-1.925-.618-3.75 1.351-.819.388-9.785-8.665.244-.862 1.595-3.405 1.221-6.064 4.555-2.63-2.055-3.952.833-1.652-.3 1.868 2.529.2 2.428-3.319 2.529-12.172 1.583-6.581 4.181-3.966-6.136 3.1-1.839-1.825-4.541-2.4-.877-6.911 2.012-7.443-2.644-2.209-1.596-3.463.92-1.451-5.834-2.141 1.006-.92-.79-1.351.661.057-1.667-.977.877.072-1.854-.316-1.7-5.23-3.075-1.739 5.676-5.561.632-1.063-2.285 1.839-8.679-5.949-5.762 1.581-1.423-2.4-3.132 3.98-3.549-1.322-1.02 2.357-6.854-2.543-5.273-3.492-.187-1.408-4.842 4.857.474 7.328-3.765 1.15-5.072 1.236-7.2 3.42-2.859z" transform="translate(160.284 25.419)"/><path id="KZ-AKT" class="cls-2" d="M288.416 358.205l-2.385 1.264-2.917.618-1.379.92-1.236 1.7-1.379 2.917-1.078 3.075-.158 2.759-1.221.618-.92 1.538-.072 1.193-11.38 3.219L224 390.765l-4.009-29.557-2.515-6.969-2.3-4.5.517-1.7-3.29-4.253-.345-5.317-16.4-4.886-5.676-2.356-8.377-8.435-1.739-6.753-4.167-5.259 2.2-16.826 1.063-6.538-1.9-3.233-.618-7.774-4.354-4.871 1.006-3.822-1.552-6.667-1.063-1.811.92-6.667.819-.647-.129-6.739-5.015-.431-.014-1.782-2.1-1.523-.92 1.552-1.825-.474.086 2.486-.69 3.664-3.046-.3-1.681-.848-6.653-.7 1.121-2.845-1.193-2.716.8-2.443-1.94-9.843-1.466-.345-1.264 3.247-1.71-.848.417-1.135-3.391-1.537-2.213-2.04-.259-3.98 1.839-6.279-.977-2.242 1.739.862 1.135-2.9 2.155-1.94 2.73.014.5-2.084 3.449-.072 2.385.431 2.744-1.624-.647-1.193 1.94-2.443.589-1.538h3.089l-1.638-2 2.687-4.727-.1-1.279 1.25-2.529-.359-2.184-1.882-.891-.086-1.106-1.322-.4-.1-3.693.517-3.032-2.1-2.917 2.974-3.161-.474-1.25 3.52-4.2-.431-.618.862.575.517-.187 1.624-2.543 1.006-.56.546-.92-.46-1.969-1.121-2.572-.46-3.19.848-1.8.575-1.9.833.3.675-.086.963.532.46-.014.359-.259.244.23.144.833.647.2.46.718.589-.23-.043-.848.647-.158.172-.388.46.043.23-.33.7-.057.359.172.675-.862-.144-.876 1.193-.589.905.532.517.618.144 1.035-.187.5-.905 1.135-.216.56.216.546.79.718 1.336.848 5.848 5.475.5.2.862-.819 2.27.129.575 1.351 1.8.934 2.874 2.227.532.014.6-.5.56-1.308 2.242-1.308 1.379-.4 3.046-1.624 1.491-1.35 1.581-1.15 1.049-.4.359-.388.144-.474-.172-1.408.072-1.451 1.092-3.621.445-.632.575-.2 2.328 1.193 1.71.014.79-.7.3-1.94.4-.2 1.293.273.5-.345.158-.69-.417-1.868-.007-1.34.934-1.063.144-.043.7.891.244.905 1.48.8 1.322 1.8 1.322.072 1.322.718.345-.287.215-1.193-.56-1.538-.259-1.566.172-.129 1.624-.043.56-.2.69.086 1.437 1.15.575.115 1.509-.963.532.259.6.632.675.144 2.831-1.063 1.652-.862.532.6.489 1.7.905.718 1.078.445.718 1.207.057 1.538.862 1.121 2.529 1.724 1.925.56.474-.172.086-.316-.388-.948.115-.345 2.313-1.106 1.423.014.762 1.408 1.178-.517.431-1.566.187-5.59.23-2 .675-.345 1.106-.086.647 1.006.862.632.445-.072.345-.445.718-.172.517 1.035 1.221-.029.359.532 1.365-1.279.4-.043.675-.575.316.489-.115.948.259.647 2.1.489.158-.144-.172-.474.129-.388.733-.172.287-.388-.2-1.279.675-.316.474-.489.23.129.244-.259.23.144.316-.474.948.388.862 2.716.4.546.718.129 1.624-.374 1.394.158 1.121.23.546.632 1.078 2.242-.057.6-.575.776-.417 1.681.2 2.888.7 2.141.647.388.862.086 2.443-.92 1.078.086.331.474-.331 1.408.216.934 1.925.92.575 1.552.891.69 1.552.216 1.207-.345.661.043 2 .718 3.2.359.733.3.474.762.532.158.661-.56 2.4.575 1.9-.517.546.014 1.784 2.428v.345l-.6.273-.072.259.043 2.644.043.345.316.072 2.2-1.121 4.9-1.25 1.308-.69 1.825-3.046 2.946-7.7.833-1.207.977-.4 1.9.273 1.25.647.273.4.072 2.012 3.405 4.253 1.078.6 3.377.417 3.032.23 2.9-.158 1.724.345 2.155-.029 2.773-.991 2.242-.115 11.682-4.756.661-.56.431-1.164.833-5.475 2.529-12.76 2.342-.79 1.854.905 2.055-.905 1.25-2.184 1.954 3.018.244 2.831 1.379 4.641 2.27.891 1.48-2.069.747-.546 4.138 2.486v1.724l-.934.158-.934 3.233 5.029 4.9-3.161 2.2.56 2.471-.014 2.644 3.908-1.221 2.558 13.018 3.693 5.877.56 2.242 6.078 9.081.546 2.242-1.351 4.742-4.426-3.635-4.454 3.951-.4 4.6-4.411 2.687.905 4.957.905 1.293-3.29-1.135-2.371 3.089 1.451 1.652 5.1 8.636-.92.7-.546-.546-4.181.675-.718 2 3.621-.331 2 6.912 7.788 7.7 6.035-3.29 2.9 2.586.172 1.609-1.857 2.467 1.063 3.607 9.11 3.089 1.624 1.825 4.555 1.724 4.526 3.161 6.021 11.5 5.115 8.952 2.543 1.135-6.193 6.825-32.934 23.02-2.1.675-1.22-1.753-8.032-1.25 1.207-2.788-7.7-9.8-3.492.532-2.3-4.383-4.771-7.185-16.97 3.908-9.612 25.706-11.682-.963-.8 8.851-8.564.7-11.251 10.446-2.357 3.678-3.219 3.52-6.136 9.211z" transform="translate(60.796 58.441)"/><path id="KZ-ALM" class="cls-2" d="M660.051 256.006l3.334 2.17 1.394 1.638 3.52.316 1.365 3.506 12.429-1.394 8.765 12.286 13.291-4.641 5.963 2.471-.112 2.874 9.555 4.2 8.118 4.541 8.679.216 1.566 2.385 1.322-.043 1.566-1.02.819 2.055.905 1.049 1.25-1.767.819.014-1.049 1.638.934.2.977.043.977.733.905-1.667.661-.029-.517 1.408-1.408 1.049.388.431 1.221-.244-.991 1.308 9.254 10.849 2.184 8.262 4.526 4.929-.861 6.028.345 2.27 1.02.891 2.888-1.035.474.647 2.457 1.48 1.035.92 4.828 1.035.388.546.747 2.845-1.063 5.072-2.96 4.368-1.48-1.035-3.535-3.147-1.494-.374-2.256.474-1.609.647-2.673 1.839-1.782.172-.819-.474-.489-1.451-.273-.144-1.494.388-.719-.216-.187-1.595-.316-.618-.345-1.81-1.034-.79-.532-.934-1.178-.647-.273.431-.575.287-.92-.216-1.336 1.063-.4.79-1.035.244-.417.575-.747.445-1.379.23-.431-.762-.172.029-1.336 1.264-.877-.2-.3-.259-.848.8-1.394.23-.546-.172-.2.287-1.049.331-.4.762-.3.072-1.336-.4-.057.474-.417.445-.072.5-.3.33-.575-.029-1.092.374-1.794-.049-1.7 1.451-1.02.1-1.035-.661-1.825-.517-.632-.632-.2.086-.158.848-.546.5-2.515 1.063-1.322-.172-1.264.187-.56-.445-.647.144-.69.589-.5 1.379-1.293.905h-1.092l-.56-.747-.374-.115-.79.3-1.049.877-.661.216-1.221.072-.69-.632-.963.086-.934-.244-.23.388.345.79-.086.359-.417-.23-.417.086-1.609 1.767-2.831 1.8-.445.5-.718.215-.316.5.316.345.747-.532.618-.014.92.618.733.1.819 2.428 1.135.618 2.256-.345.891-.8 2.1.3.992-.747.7.086.431.489-.158.489.244.129 1.193-.345.661 1.308 2.3 1.15.992.963.144 1.035-2.385.8-1.135 1.15 1.193 1.839-.359.8-.747 3.118-.6 1.063.575 1.882.546 4.4.56 1.652v3.075l.4 2.644.833 2.083-.187.8.043.388.4.517-.072 1.092 1.466 3.233-.086 1.178.46 2.112.517.374 1.437 3.2 3.535 8.909.431.575.374 1.351-.331 1.164.043.747-.7.719-1.38 2.96.057.273.331.417 1.954-.129.388.172.057 1.063.575 1.15.029.963.489 1.164-.632 1.178-.877.072-.647.546-.719-.431-.776-.144-2.112.6-2.543 2.1-2.572.733-.589.675-.014 1.193.445.833.92.905 1.279.833 2.385.618.618 1.078-.072.172-.3-.057-.79.431-.316-.331-.115.331-.489.187-.46-.2-.187.4-2.04.862.014.374-.618.417-.431-.158-.747.3-.014-.316-.776.3-.144-.417-.259-.014-1.523.259-.086 1.15-.46 1.15-.56 2.385-.991.963-.431 1.609.287 1.509.891 1.854.833.776.762.072.3.345-.532.618-1.178.589-.172.848-.043 1.264.589.819-.043 2.04 1.308.934-.331 1.135.675.934-.244 1.379-.92.532-.517.029-.5-.4-.33-.014-.8.661-.431-.086-.747.517-.216-.129-.187-.647.23-1.868-.517-.79-.46-1.308-.647-.417-1.092-.273-1.121-1.078-.46-1.322-.4-.718-.33-.216-1.667-.115-.259.56-.374.1-.215-.273v-.517l-.2-.072-1.236-.1-.445-.287-.675.1-.374-.6-2.242-.359-1.351.948-1.193-.2-1.767.029-.7-1.178-2.5-2.012-.675-1.48-.345-.331-1.638-1.264-1.322-.359-.517-.675-.417-.158-1.15-2.012-.287-1.566.129-.7.331-.46-.172-.158-.675.014-1.494.489-.445.963-.287.187-.848-1.106-.5-.287-1.092.129-.8-.3-.79.23-.762-.517-1.466-.287-.719-.388-.733.072-.833-.718-.848.043-.4-.3-1.035.374-.79-1.063-2.859-.661-.632-1.006-1.078-.4-2.428 1.006-.891-.33-.474.934-.69.216-4.268-.977-.575.891-1.394-.244-.675.216-.675.762-.546-.79-.5-.3-.431.014-1.049.647-.891-.963-.877.273-1.035-.5-.963.057-.5-.216-.833-.948-2.285.144-1.71-.374-1.667-.029-1.466-.546-1.351.158-.862-.316-2.96.776-2.342.072-1.02-.316-.819-1.135-.5-.3-2.486-.259-1.221.2-3.176-.833-2.313.029-1.221 1.193-1.308.187-.46 1.193-.445.359-3.219-.287-1.15.115-1.451-.345-.8 1.135-1.135.115-2.716.776-.675-.029-.216-.187-.431-1.308-.877-.517-3.736-.158-2.759.517-.345-.158-.445-.618-1.293-.144-.934-.776-.877.431-.934-.273-1.351.69-.216.029-.287-1.351-1.451.632-1.552-.977-2.7.3-.316-.618 1.609-.489.747-1.523-5.259-2.486-2.7-.56-.661-2.73-1.078-.474.388-1.652-1.063-.632.316-3.247 3.707-4.5-1.006-1.7-4.181.517.417-1.336-1.581-.2-.948.647-4.713-1.652-.014-2.471 6.107-5.805 1.063-.5.661-1.8-.647-2.773 1.236-1.423.632-1.667-.129-4.8-2.9-1.983-1.581-2.141-1.739-.244-2.673-2.457-.474-.057-6.236-.675-5.331-5.1-.905-1.423 1.279-4.713-2.673-4.612-8.966-6.279-.546-1.71-1.092-1.308-.23-4.8-7.831-.2-.5-7.343 8.435.618-1.523-4.009-1.207-14.656 2.658-4.483 2.242-4.9 2.443-4.038 3.2-3.607 5.935-6.092 7.6-6.868 15.964-9.182 6.653 1.336 8.535-1.581 9.527 1.681-.029 1.178 1.609.431 1.911-2.256.776 2.342.862-1.049 2.543.92.877-2.069 1.81.287 2.572.762 4.239 1.882-3.018-3.046 1.94-.359 2.946 1.509 2.773-.388 2.788 1.48.92 2.357 2.1-.316-.043-2.558 8.463-.948-1.207-21.094.762-1.408 7.213 1.609 4.1-4.6 3.563 3.75 4.5-5.733z" transform="translate(231.522 110.118)"/><path id="KZ-ATY" class="cls-2" d="M88.347 321.208l-.2.172-.431-.1-.862-1.8-.287-.158.23-.273-.776-1.724-.144-1.149-.647-.7-.1-.33.158-.23.431-.158 1.523.6 1.379 1.552.474 1.782zM195.77 198.18l2.2 2.055 3.391 1.523-.417 1.15 1.7.848 1.264-3.247 1.466.345 1.94 9.843-.8 2.443 1.178 2.716-1.106 2.845 6.639.7 1.681.848 3.046.3.69-3.664-.072-2.486 1.825.474.905-1.552 2.112 1.523v1.782l5.015.431.129 6.739-.819.632-.92 6.667 1.063 1.811 1.552 6.667-1.006 3.822 4.354 4.871.618 7.774 1.9 3.233-1.063 6.552-2.2 16.812 4.167 5.273 1.739 6.754 8.377 8.42 5.676 2.357 16.4 4.885.345 5.317 3.29 4.239-.517 1.7 2.285 4.5-2.5-1.494-2.184.158-1.308-1.221-1.925.991-2.96-.891-.733-2.242-1.236-.546-1.423.977-1.437-.848-2.083-.6-.46-1.279.445-2.213-.963-2.888-1.365-.187-.8.431-.431.718-.819.259-1.811-1.121-3.377-4.785-6.581 6.524-3.089-.431-11.035 1.15-5.345 2.084-4.225.1-2.586 1.035-1.81.431-1.71-.086-1.983.46-.56.92-4.311-.532.388 1.782-1.509 2.888-6.351 4.727 2.931 1.724-1.81 1.739-2.831 1.71-3.377 1.451-2 .273-1.868 1.236-4.311-.575-.891 2.227-3.765-.2-6.394-1.581-.043-.359 1.049.172.5-.216-1.063-.374-.172-.359.1-.963.589-.259-.086-.661.273-.23 2.155-.216-1.135-.661-.187-.6.374-.388 1.135-.3-.618-.69-.388-.991-.675-.546-.158-.5.244-.259 1.221-.014.4-.747-1.552-1.365-.56-.216-.848-1.006.589-.776.977.014-.991-.489-.115-.56-.388-.129.3-.489-.058-.56.79-.6 1.221.158-.445-.747.431-.287-.589-.2-.086-.388.977-.532.69-1.149.56.647-.086-.575.187-.546-.172-.187-.388.129-.273-.46.374-.6.086-.8.632-.905.1-1.092 1.718-1.879.776-.259-.733-.273-.072-.244.891-.129.158-.216-.589-.33-.56-.905-1.193-1.063.4-2.184-.331-1.466 1.049-1.02-1.106-.417.388-.948-.546-2-.287-.086-.388.2-.417-.2-.632.431-.374-.172.33-.647.5-.158-.905-.92-.3.115-.23-.158.23-.991.532-.4-.345-.718-.575-.23-.172.1-.675 1.106-1.379.819-.762 1.207-.029 1.035-.474-.043-.489-.345.057-.718-.244-.431.115-.474.374-.374-.172-.618-.5-.331-.532.216-.359.46-.287-.086.057-1.078.23-.359-.5-.172-.1-.4-1.15-.46-.158-.259.129-.244.517.144.6-.675-.244-.345.144-.69-.316-.546-.647-.445-4.138.8-1.078 1.178-.647.316-.345-.057-.5-1.121-.632-.115-.762 3.463-.33.388-.833.345h-1.221l-2.069-1.135-2.759-.5-2.04-1.135-1.466.158-.632-.331-.029-.316-.345.144-.158-.345-1.8-.632-2.012-.3-1.02.057-1.063-.762.172 1.552.647.632.718.359.388.661-.1 1.652-.374.762-.187-.129.158.46-.187.014-.489-1.322.244-1.193-.589-.618-.5-.072-.144-.56-.56-.5-.675-2.529-.23.014-.043.474-.3.029-.359.517-.7.129-.948.977-.3.144-.172-.244.747-.776.7-.4.287-1.15.259-.014.072-.23-.23-.388.474-.388.1-.776-1.279.675-1.035 1.264.618-1.207-.014-.445-1.595-1.839-3.65-1.078-1.121.172-.374-.3-.747.331-1.379-.46-.632.3-.56-.029-1.969 1.7-.445.029-.4.3-.216 1.049-.46-.115-.445.259-1.365-.043-.647-.316-.69-.014-1.552-.762-1.322.316-.575.374-.6.848-.23.115-.259-.273-.431.086-1.279 2.385-.747.718-.56.029-.244-.273.273-1.106-.115-.517-.359-.187-.4.187-.92.675-.718.948-.2 1.494-.762 2.012-.345.345-.489-.115-.3-.431.359-1.265-.187-.273-.934.762-.417-.014-.259-1.681-.69-1.049-1.379 2.328-.287.833-.5.532-.2.072-.345-.431.23-1.279-.33-.014-.79.474-.417.56.259.345-.948.776-.718 1.494-.33 1.264-.5.776-.374-.431-.115-2.946-1.882 2-.833.589-2.012 3-.345 1.236-1.911-.517-1.006.474-1.106 1.753.144 1.365-.388.56-.733.359-.46.661-1.207-.4-.762-.618.359 1.106-.216.876 1.351 1.092-.287.129-.848-.4-.2.23 1.164.948.445.747-.129.316-.762-.216-1.8-1.049-.6-.072-.733 1.193-.489-.072-.388-.417-.316.086-.259 1.164.374.69-.517.546-.345-.216-.474-1.02-.733-.876-.244.014.144 1.106.489.776.029.431.833.848.172.747-.187.216L80.7 317.6l-.934-.747-.144-.331-.661-.014-1.164-.862-.316.014-.259.489-.8-1.667-.345-.187.086-.575-.187-.388.3-.5.891.259-1.135-1.264.072-.517-.158-.3-1.451-.517-.632.086-.216.172.5.589h.532l.273.287.129.46-.158.575.345 1.308 1.466 1.609.158.575-.2.589.6.374.172.331v.4l-.23.259-.489.029-.273.5H76.2l-.862-.661.086-.359-.474-1.638.129-.6-.374-.144.158-.4-.819-2.012-.905-.848-1.207-.69-.043-.3-.33-.259-.546-.1.216.331-.129.172-.718-.532-.086.144.647 1.379.718.316.1-.532.33.244.172.6.431.474-.129.445.216.647-.359-.057-.589-.8-.877-.546-.115.259.4.3.33.848-.661.259.057-.92-.618-.546-.46-.8.072-.316.273-.158-.575-.532-.5-.014-.129.187.345.762-.417.259.589.56.072.56.56.733.762.661-.086.331-1.537-.833-2.773-.776-.489-.776-1.106-.675-.79-.158-1.437-.718-1.164-1.121-.977.086-.991-1.394-.374-1.035-.963-.517-.474.014-.543-.44-.891-.129-.948-1.882-.589.374-1.638-.345-.431-.46.144-.747-.115-.287-.948-.115-.8-.388.014-.848.833-2.213 1.932-1.66 2.112.115.877.675.172 1.178 1.581 1.538 1.379.158 3.161-.374 1.164-.963 1.379-2.04-.963-2.759-5.288-7.156-1.336-3.089-2.012-5-.5-1.739-.991-6.682-3.75-.072-2.572-.718-2.874-4.6-1.239-2.94-1.437-2.515-3.621-3.506-1.423-.172-1.13.361-4.785.474-2.845.057-3.736-1.178-4.038-1.724.057 1.135-.3 2.27-.632 2.342-5.029-2.989-1.609-1.638-.647-1.121 1.193-.618.115-.259-2.546-4.551-1.48-2.213 3.391-1.667.56-.862 1.02.1.316-.833-3.089-1.106-.057-.762.661-1.365-.072-1.207-.273-.733-.259-.359-1.667-.747-.589-.963 4.225 1.408 3.276-.172 14.211 2.227 24.629 2.745 7.731 2.17 13.679 5.413-.216-4.311 8.693.474L87.9 246.2l4.7.115 5.661-5.805 15.346-10.3 1.753-.043 2.615-2.486 1.15.575 2.572-1.581 1.552-4.871 5.776-.4 3.319-1.523 11.811 2.04.747 1.523-.963.675-.216 3.449 8.952 2.04.991-1.753 1.221-.172 6.136 3.477 3-.072 1.977-1.195-.632-2.069 1.94-8.233 3.377-.144-.431-10.274 2.471 1.092 1.667-3.88 1.724.833 9.7.014 4.325-1.365-.733-1.71 5.4-4.584z" transform="translate(4.435 86.586)"/><path id="KZ-KAR" class="cls-2" d="M622.659 135.933l9.627 3.492.115 3.247 1.221 1.882-1.236 3.793-.618 3.319.158 4.354-1.494.345-.762 1.581 1.207 1.868-2.069 1.954 4.11 4.526 4.124-1.078 4.023-.331 2.256-1.9.374 1.178 4.569.891 1.537 1.925-1.609 1.25 1.854 4.756 1.954-4.9 3.908 4.167 1.609.072 2.155 3.707-.977.575.762 2.17 3.219 1.279.46 1.739-.948.4.417.8-1.509.489-.287-.417-3.809 1.621.043.934-1.782 1.193.963 3.291 1.8-.086.532 1.193 2.8-.833 5.776-4.21 1.351-1.811 8.19.273.991-.56.388-1.408 1.336-.517 1.236 1.322 9.814-2.7 3.621 2.127 1.322-.316 1.293-3.477.647.489 2.2-1.264 3.147-.345 3.132 1.868 1.049-1.839-.172-4.3 1.739-6.926 2.874-2.8 5.388-1.394 4.943 5.23 5.834.23 4.6 2.946 1.652 5.877-2.227 3.061 3.219 2.3-.632 2.457-4.11 3.42-2.2 3.061-3.951 1.811-1.236.862-2.543.072-.776 3.319.848 1.264-.646 2.615.733 1.969-.575 2.256-2.486 3.908-7.271 2.673-6.6 3.176-.417 2.457 2.242 2.572-.072 1.437 2.357.776 4.2 3.463.072 2.7 2.256 1.308 2.7 2.816-2.673 1.135-.575-.819-2.328 1.207.244 1.652-.647 2.759 1.969 3.923 11.438-1.882 1.15 3.42-1.178 4.6.029 1.782-5.144 5.288-2.141-.733-1.423.115-1.451 1.336.316 2.184-2.213.675 1.035 2.12 2.414 1.121.388 1.839 4.368-.115 1.322.4-.6 1.48-2.457.1-.733 2.155 3.592 3.276 2.816-.216 1.983 1.581-5.2 1.9 1.667 2.4-1.911.014-.259 3.449-1.39-.058-1.38 5.877-1.681 3.722.575 1.652.632.287 1.466 6.322.3 2.127-2.543-1.121-2.639.419.144 3.147-1.193 2.9-2.2.833 2.5 1.293 1.451 2.471 2.716 2.012 4.153 1.552 1.351-3.722 1.739-1.078 3.29 1.609 2.788-1.25 1.207 21.094-8.463.948.043 2.558-2.1.316-.92-2.357-2.788-1.48-2.773.388-2.946-1.509-1.94.359 3.018 3.046-4.239-1.882-2.568-.758-1.81-.287-.877 2.069-2.543-.92-.862 1.049-.776-2.342-1.911 2.256-1.609-.431.029-1.178-9.527-1.681-8.535 1.581-6.653-1.336-15.966 9.18-7.6 6.868-5.935 6.092-3.2 3.607-2.443 4.038-46.153-.532-26.741.991-4.943-.359-22.387.575-39.558.087-52.821-.833-.445-3.88-1.351-.4-11.079.618-36.454-9.9-5.159-2.874-5.091-5.748-5.819-.5-14.039-7.558-2.874-.086-14.01-5.475-1.221-1.236-2.7 1.667-8.277-4.641-3.707.287-4.21-2.831-3.334-3.147-11.538 2.141 7.687-6.006 32.934-23.019 6.193-6.825-2.543-1.135-5.115-8.952 7.889-7.17-1.552-5 10.418-2.3-2.141-2.745.963-1.552-1.049-2.543 5.92.23 1.437-10.82 21.539 3.564 2.069-1.164 2.026.273 3.176-1.121 1.854-4.555 8.693-.316 8.392-9.254 4.253-.5 1.81-6.365 3.664.374 1.494-3.707 4.268-3.894 5.891-3.449 9.3-10.662 6.207-7.975-1.308-2.644.79-.862-.977-1.9.991-1.221 4.656-.6 5.13-2.2 1.954-1.7.891-2.141 1.595-1.724-.474-1.15-3.017-1.7-.129-.92-1.595-1.035-.2-2.428-1.868-2.529 1.652.3 3.952-.833 2.63 2.055 6.064-4.555 3.405-1.221.862-1.595 8.665-.244-.388 9.785-1.351.819.618 3.75-1.236 1.925-1.17 5.435-2 2.227.963 1.724 2.242-.733.46 1.135 1.624.129 3.621 2.318 3.592-1.9 1.193 1.006.733-.115.345-1.983-.819-.991.287-1.264.819.991 1.25.1 2.3-1.451-.991-3.219 3.793-2.069.517 2.443.848-1.394.733-.129 1.049 2.5.819.991 1.624.144-.675 3.607 1.652-.4 1.236.3.948-.474 1.25.115 8.693-2.515.848 2.471 1.308-.431.589 1.336-2.486 3.621-.115 3.118 1.724.891 2.256-1.063 4.009-2.558 3.089-.417.891-1.753-1.739-4.411 6.021-2.7 2.012 3.52.359-9.2 1.839-.374.431-.69 1.983.029 3.693-2.586-.589-1.351 2.184-1.811 2.5.273.905-1.767 2 .029.79-4.2 4.181-1.782-.057-1.121 1.293-.23.4 1.351 1.9-.718.374 1.537 2.012-.144 3.161 2.8-1.911 2.572.848.474.259.963-.848 1.207.5 2.1-2.558 3.607 1.739.575.69-1.408 5.863-.618 3.492 2.658-.388-1.351 1.868-.517-.618-4.167 2.069-.69 1.106-1.724 3.2 2.069 2.313-1.207-3.032-2.055 2.026-1.8-.79-1.035 1.423-1.322 1.02.5.172-1.48 4.038-.244 1.882-2.2-.8-.848.273-.718 1.106-.244 1.638-2.989 4.512 1.911 1.135-1.925 2.4-.244 1.552-.733-.991-2.4 7.414-2.4 4.153-3.966-3.635-1.638-1.437-.2-1.494 3.2-1.006-.7.287-.905-1.724-3.837-1.221-.546.46-2.227 1.351-.575.762 1.25 2.285-.647-.445-.819.762-.273.8 2.385 1.81-2.788z" transform="translate(136.259 58.769)"/><path id="KZ-KUS" class="cls-2" d="M428.441 28.961l1.02-.1 2.2-.776 1.437 5.446.589.862-.8 1.15 3.176 8.736-5.363 1.911 5.273 3.3 1.954.187 1.523 4.038-.79.762-2.529.244-7.3 3.851 2.917 9.369 3.578-.776.057 7.558-2.27 2.227-1.25 1.7 1.221 3.65 4.713.5.287 12.444 4.21 2.63-.7 3.1-4.1-.862-1.825 1.451-2.946-.2-1.236 1.494 1.006 4.569 1.379.086.23 4.311-.589-.043.187 5.273-2.974.776-.345 14.7-.2 10.748-3.42 2.859-1.236 7.2-1.15 5.072-7.328 3.765-4.857-.474 1.408 4.842 3.492.187 2.543 5.273-2.357 6.854 1.322 1.02-3.98 3.549 2.4 3.132-1.581 1.423 5.949 5.762-1.839 8.679 1.063 2.285 5.561-.632 1.739-5.676 5.23 3.075.316 1.7-.072 1.854.977-.877-.057 1.667 1.351-.661.92.79 2.141-1.006 1.451 5.834 3.463-.92 2.213 1.595 7.443 2.644 6.912-2.012 2.4.877 1.825 4.541-3.1 1.839 3.966 6.136 6.581-4.181 12.171-1.581 3.319-2.529 1.595 1.035.129.92 3.017 1.7.474 1.15-1.595 1.724-.891 2.141-1.954 1.7-5.13 2.2-4.656.6-.992 1.221.977 1.9-.79.862 1.308 2.644-6.208 7.975-9.3 10.662-5.891 3.449-4.268 3.894-1.494 3.707-3.664-.374-1.81 6.366-4.253.5-8.394 9.242-8.693.316-1.854 4.555-3.176 1.121-2.026-.273-2.069 1.164-21.539-3.564-1.437 10.82-5.92-.23 1.049 2.543-.963 1.552 2.141 2.745-10.418 2.3 1.552 5-7.889 7.17-6.021-11.5-4.526-3.161-4.555-1.724-1.624-1.825-9.11-3.089-1.063-3.607 1.854-2.472-.172-1.609-2.9-2.586-6.035 3.291-7.788-7.7-2-6.911-3.621.33.718-2 4.181-.675.546.546.92-.7-5.1-8.636-1.451-1.652 2.371-3.089 3.29 1.135-.905-1.293-.905-4.957 4.411-2.687.4-4.6 4.457-3.948 4.426 3.635 1.351-4.742-.546-2.242-6.078-9.081-.56-2.242-3.693-5.877-2.558-13.018-3.908 1.221.014-2.644-.56-2.471 3.161-2.2-5.029-4.9.934-3.233.934-.158v-1.724l-4.138-2.486-.747.546-1.48 2.069-2.27-.891-1.379-4.641-.244-2.831-1.954-3.018-1.25 2.184-2.055.905-1.854-.905.158-.043-2.572-2.328-.877-1.035-1.178-3.276-.762-.618-.891-.244-1.925 1.437-.862.057-1.739-.46-3-2.083-1.308-.072-.374.23-.647-.589-2.644.057-.287-1.264-.819-.129-.33-1.207-.618-.905-.431-1.451.331-1.221-.172-.331-2.256-.244-6.222.086-2.127-.532-1.322-.56-2.486-2.084-.33-.589 3.334-3.334.345-.431-.086-.747-1.207-.374-2.012-.287-6.222-4.066-.215.287.273.647.014.8-.862.072-.316-.144-1.092-.69-1.164-1.667-.172-.575-.029-.977.359-1.681 1.854-.359 2.7-.086 1.178-.517 1.494-1.25 1.394-1.911 3.564-3.334 1.063-.575 2.974.5.5-.287.92.029.647-.273 1.322-1.193.718-1.652 1.264-.1 3.449-1.811.92-1.264 1.854-1.279.23-.374-1.423-3.449-1.166-2.006v-1.8l-.144-.3-2.227-.2-1.25-.431-.158-.417-.072-4.225-.359-.388-2.227-.46-.115-.489-.819-.273.057-4.023.345-.46 2.7-.5.79-.489.589-.69.575-1.379 3.362-2.4 1.6-1.94-.33-.7-.8-.8-.23-1.609 1.193-.086 1.351.532.374-.877 2.989-1.969.963.273 1.437 1.609 1.351.2.862-.532 1.595-1.7 1.193.359.316.345.618.043.833.532 2.112 2.04.589.086 1.466-1.667.719.187.532-.259 1.523-.043.374.2 1.365-.718.445.014 1.882 2.328 1.322.4 1.451-.819 2.155-1.681.057-2.744-.8-2.4-.891-.172-1.279-.6-2.974.144-3.535-1.408-1.106-1.092-.948-1.954-1.624-1.178-.718.23-.187 1.135-.359.273-2.9.129-1.523-.46-.862-1.193-1.035-.819-1.207-.3-1.379.144-1.667-.129-1.667-1.063-.4-.977-.3-3.233.474-.7 1.7-1.681.287-2.486.331-.589 1.221-.187.747.675 1.379-.014.331.474.158.776.661.359.718.043 1.02-.158 1.049-.532.718-.79.963-.5.259-1.15-.905-2.342-1.48-.776-2.457.115-.532.762-1.121.632-1.638-.3-3.894-.158-.963-1.164-.532-.244-.862-.043-1.063-.56-3.3-.216-.172-.287.029-1.365.23-.7 2.242-.129.3.4.244.934.287.172.316-.172.187-2.687.287-.3 1.48-.532 1.164-2.112 1.379-1.02.46-.661v-.905l-.316-.776-1.7-1.379-.273-.905-1.092-.33-1.063.273-.833-.661-1.092-.057-.187-.747.445-.862 1.049-1.078 1.767.043 1.595-.388.819 1.782.776.388 1.164-.086.129-.316-.244-.92.69-1.7-.891-1.595.316-.991 1.207-1.264.187-.6.69-.3 1.092.057.675-.5 1.854.244.388.575.575 2.486.647.575 1.006.129.747.431.431 1.566.445.388.776-2.012.489-.718 1.221-.316.991-.517.345.934 1.164 1.207.56-.431.287-.79-.057-.6.948-.46.158.273-.431.575.172.244.819-.4.776.46-.891 1.566-.043.431 1.595.431.5.532.905-.014 1.264-.115.417-.316v-.733L317.741 58l-.259-1.02.417-.532.618.014.92-.762h.833l.963.762 1.9.316.532-.345.374.187 2.716.072 1.063-.56.8-.057.5-.4.474.057 1.437 1.365-.5.661-1.609.79-.057.4.848 2.385.345.5 1.236.517.92.69.532.029.33-.647-.374-.948.259-.647.546-.618.445-1.164 1.135-.46.374-.575.043-.431 1.264-.963.431-.1.6-1.092 1.006-.374.345-.431.532-.129.517-.762-.187-.56.129-.33.977.172 2.184-.244 1.15.445h1.336l1.207.359 1.652-.345.733-.388.4-.517L350 51l-.445-.991.187-.575.23-.23.977-.187.331-.33.762-.043.158.359.374.172 1.279-.489 2.9.46.5-.273 1.509-.259.244-.374.661.345.287-.517.445.216 2.745-1.106.316-.345 1.15-.23 1.193-.69 1.854-.431.23-.374.92.158 1.006-.517.762.675.417-.287.4.043.2-.23.46.316.4-.158.115-.862.474-.69.23.3.4-.1-.244.891.086.23.489.086.819-.7.532-1.02.7.3.489-.2.56.417.747-.144.445.115.934-.776 1.15.129.92-.46 1.049.043.632-.23 2.27.273.647-.33.3-.546-.029-.5.23-.244.5-.1.388.316.589.1.532-.388.546-.057.819-.445.129-.516.589-.474.718-.1.345.244 2.3-.575.2.316-.144.216v1.595l.287.1 1.523-.417 1.336-.747 1.724-1.322 1.15-.532.474.072 1.351.991 1.135 1.092 1.25 1.724 3.089-.086.474-.618.014-.618-.762-3.032-.647-.977.56-1.8-.244-1.7.359-.46 2.1-1.466 1.919-.769h.848l2.012.56.6-.172.072-.762-.977-1.336.1-.79.417-.517.934-.359 2.357.647 1.293-.029 1.078.46 1.638 1.121.718.086.6-.316.718-.92.431-1.178.086-.877.517-1.035 1.71-.8 1.236-.115.417.1.3.489-.56 2.055.029 1.279z" transform="translate(114.955 10.626)"/><path id="KZ-KZY" class="cls-2" d="M245.454 329.361l.977-.718.46-1.049.517-.647.977.517.517.589.905.331h1.308l.589 1.106-.33 1.308.259 2.213-.129 1.437-.718.905.848 1.753.589 2.285 1.049.647.848.848.46 1.236.043 1.106L240.77 333.2l.144-1.423.589-.388v-1.365l.33-.647h.905l.776.388 1.164.043zm22.717-1.035H265.2l.2-5.044 2.371-.589 4.656-.3 3.564.4.69 1.48 2.673.489 2.874.1.4.69H275.2l-3.966 2.184zm58.784-82.967l2.3 4.383 3.477-.532 7.7 9.8-1.207 2.788 8.032 1.264 1.221 1.753 2.112-.675-7.687 6.021L354.444 268l3.319 3.161 4.21 2.831 3.722-.287 8.277 4.627 2.7-1.667 1.221 1.236 14.01 5.489 2.874.072 14.039 7.558 5.819.5 5.087 5.748 5.158 2.859 36.469 9.9 11.064-.618 1.351.4.445 3.88-.388 3.319 4.411 3.405.848 2.716-.8 1.782-1.7 2.4-.876 2.946-.259 4.124-1.782 6.524 5.3 4.4 4.44 1.9.172 27.445-.546.776-.331 2.414 2.974 2.917 1.7-.546 3.2 1.8.072 1.293 3.2 3.894 7.659 5.475-1.968 1.954-1.078-.877-1.7.69-1.437 1.523.589.833.819 2.127-.331 4.138-1.193.575-2.759-2.4.014 6.064-2.658 2.716.23 1.279-.575 3.147-2.831.8.833 3.693 1.193-.733-.445-2.4 1.537-.876-.3 1.739 1.624-.072-.489 2.04 1.078 2.586 1.983-.532-.115 1.264-2.73 1.753-9.254 4.627-7.458 2.759-6.983 5.259-7.86 7.932-3.923-2.414-11.28 11.711-2.428-.589-.216-22.674-7.587 3.564-4.009-12.9-.905-3.664-6.567-5.834-3.391-3.405-3.449-7.616-.6-.69-.963-.546-1.667.029-1.236.316-13.205 6.279-.632.115-16.772-1.063-10.877-1.106-3.923-.632-12.329 2.17-25.38 4.984-.5-.043-.977-.934-19.483-24.054-3.664-3.693-1.336-4.253-13.076-9.44 1.394-1.236.848-.46.977-2.8.388-2.8-.647-2.989-1.178-3.837-1.106-1.365-1.7-.129-.589-1.825-1.236-1.049-.719-2.414v-1.7l.719-1.624-.072-5.273-.647-2.342-1.308-.977.33-1.437 1.049-2.414.129-2.342-1.049-4.167-1.365-1.494-.2-2.8 1.437-.977.776-4.1.589-.776.331-1.394 3.966-.977.977-1.365.46-1.753 2.6-2.414 2.931-.517 2.012-1.825 2.6-.977 2.73-1.624 1.753-2.989.46-4.756-.086-2.414-1.078-.158-1.538 1.236-4.3-.762-3.837.158-2.759-3.377.158-4.756.46-2-2-.618-1.379-1.221-3.837.158-.158 1.379 1.538.762 1.379.158 1.839 1.379v1.839l-1.078.618-1.078 1.236-1.538.762-1.839-.92-2.155-.618v4.454l-1.035.733-.388-1.351.187-3.837-.762-1.538-1.351-1.351h-1.925l-6.337 4.225-1.149 1.538-.172 2.874.833 1.035.977 2.155.647.977 1.954.848h1.566l1.308-.647 1.624-.46 3.449-.259.776 1.494 1.236.977 1.7.589 2.155-1.494 1.049-1.308 1.236-.259.259 2.543 2.213 3.707-.057 2.859-.589 2.084-2.989 1.882h-1.566l-3.707.718-1.753-.589-1.624-1.753-1.494-.848-4.426-.905-2.213-.259-1.236.718-2.543 2.342-1.954.129-.905-.517.517-2.73-.589-.977-.2-1.753.072-2.155-1.106-1.365-1.7-.331h-4.676l-.905.2.072 1.566 3.061 4.885.719 1.624-.517 1.882.647 4.943-.331 1.954-.776 1.308-.905.46-.977-.517-1.178 3.449-1.035.848-1.236-.46-1.566.129-1.566.589h-1.494l-.2-1.049.072-1.365.331-1.566 1.624-2.471 1.178-1.308.517-1.178-1.178-.848-1.365-.718-1.236.718-1.494 1.494-1.753.129-1.7-.259-.776-.647-.56-.216 7.616-9.369 6.136-9.211 3.2-3.52 2.357-3.678 11.251-10.446 8.564-.7.8-8.851 11.7.963 9.6-25.706 16.97-3.923z" transform="translate(105.194 104.054)"/><path id="KZ-MAN" class="cls-2" d="M84.651 342.729l.115.158.69-.417.417.187-1.394.891-.474.589.129.532-.216.057-.23-.632.312-1.136-.259-1.624.144-.172.589.79zm1.911-4.785l.4.115.4-.23.374-.345.23-.762.244 1.006.374-.3.115.244-.2 1.782.158.589 1.264.647-1.48-.316-.2.388-.891.2-.029-.316.647-.56-.762-.287.431-.747-.086-.445-.948-.057-1.178-1.408-.043-.316.718-.661.115.172-.431.575zm-17.272-4.785l1.035.259.56.517-1.466.2-.69.92-.072 1.092.4 1.006.144 1.236.345.532.33.043.172-.431.129.144-.345 1.078.69.991 1.667.833 1.499-.579.23.057.086.216-.546 1.178-.172.029-.4-.474-2.012-.287-.905-.532-1.092-1.739-.934-3.147.618-1.911.043-.934zm7.472-.575l1.121.187.374 1.006-.216 1.063.244.776-.733 1.293-.029.7-.273.575-.632.445-.417.043-.575.632-.187.431.23.6-.2.158-.33-.273-.187-.8.144-.388-.2-.848.388-.833-.043-.661-.158-.388-.661-.56.129-.776-.431-.876.618-.747.991.072zm64.618-17.746l.2.029.216-.4.3-.086.33.244.762 2.04.029.876.345.8-.158.546.158.862-.057.187-.963.086.388.575-.072.158-1.437-.575-.3-.876-.733-1.106-.963-.934-.388-.675.3-.445 1.322-1.035.072-.172-.46-.431-.043-.374.7.287zm4.814-10.274l6.394 1.581 3.765.2.891-2.227 4.311.575 1.868-1.236 2-.273 3.377-1.451 2.831-1.71 1.811-1.739-2.931-1.724 6.351-4.727 1.509-2.888-.388-1.782 4.311.532.56-.92 1.983-.46 1.71.086 1.811-.431 2.586-1.035 4.225-.1 5.345-2.084 11.035-1.15 3.089.431 6.581-6.524 3.377 4.785 1.81 1.121.819-.259.431-.718.8-.431 1.365.187.963 2.888-.445 2.213.46 1.279 2.083.6 1.437.848 1.423-.977 1.236.546.733 2.242 2.96.891 1.925-.991 1.308 1.221 2.184-.158 2.5 1.494 2.529 6.969 3.995 29.557-19.772 6.495.072 140.285-3.707-.144-1.638 1.638-.8-.618-.4-.086-2.7.5-1.049.532-.287.79-.33.273-.4-.316-.216-.661-.5-.632-.287.129-.014.776-.532.374-.575-.144-1.408-.833-1.638-1.494-1.868-2.385-1.595-1.293-1.265-1.724-2.572-4.239-2.084-4.914-1.308-1.925-1.552-1.523-.431-.69-.115-.762.259-2.572-1.264-1.825-2.141-2.385-10.676-7.542-4.641-3.061-1.365-.819-1.365-.532-6.567.2-10.245 1.638-4.627 1.264-8.047 3.549-2.759.948-2.04 1.336-9.225 8.277-5.216 4.325.043-.747 1.193-2.816.158-1.753-.043-1.207-.374-1.437-1.135-1.523.216-1.624-.675-.718.417-2.931.517-1.035 1.983-2.414 1.25-2.17 2.515-6.351.6-2.989-.316-1.71-.69-1.336-2.357-2.687-.158-.489.532-.8-.115.718.33.733 1.48 1.178 1.049 1.408.862 2.342.7-.762.359-.977.158-2-.259-1.954-.56-.46-1.236-.014-.6-.532-.963.4.417-.69-.6-1.638-3.851-1.135-1.15-.187-2.227.33-.991.718-.589.92-.172-.014-1.538-2.515-.819-.575-.589-.144-.991.043-.46-.172-1.595.244-2.2.661-1.7.848-.575-.014-.5-.474-1.811-2.931-.2-.733-1.035-1.609-.46-1.7-3.219-3.046.345-.374.072-.69-.575-1.8-1.408-.129-2.673.546-.345.374-1.566-.072-3.779.618-.776-.23-.115-.6.2-1.667 1.121-4.7.1-3.061-.216-2.1-.46-.8-.187-1.336-.56-1.38-1.293-1.221-.216-.675-.891-.575-.33-.115-.216.259-.158-.129-1.078-1.825-1.379-3.219-1.221-1.494-1.044-5.65-1.351-1.983-.359-.345-1.135-.273-.546-.661.216-2.558-.4-1.825-.891-2.242-1.437-1.408-3-1.351-2.112-.532-5.2-.4-1.724-.718-2-1.379-.833-1.336-.129-.546-.072-5.59-.374-1.652.029-.144.718 1.177.029.546.345-.072 1.365-3.966 1.063.172.546-.129.316.316.862-.072 1.25.5 1.566-.129 1.293.216.92-.474 1.02.819 2.9.244 1.293-.23.517-.862.374-.086.589.4 1.969.575.79 1.221.273.043.287.632.647.3.747-.144-.345.661.33.8 2.5 1.724 2.974.057.877-.7.632-.891.647-.359.23-.647 2.414-.632.33-.014.129.273-.388.618.043.273.3-.115.776.862.618-.144.3-.287.029-.46 1.494.661.92-.331.2-.316-.273-.632-1.063-.848-1.652-.733-3.477.029-1.092.3.029-.489.474-.474-.1-.532-.718.489-.129-.144.057-1.336-.8-1.638-1.523-2.213-.92-.33-1.494-1.408-1.365-.7-.043-.244-.848-.718-.517-.2-.072.489-.632.331-1.135-.115-1.15.187-.991-.575-.072-.388 1.049.359-.287-.431.158-.7.4-.589-.474-.359-.014-.647 2.27-3.147.374-.244 1.193-.546.431-.043.733.345.287-.115 2.285-2.357.963-.5.5.043.963.546h.532l.2-1.106-.33-3.089.287-1.423.2-.474.4-.316.33-1.423.92-1.552.675-.517.374-.747.575-.144.963-1.365.445-.287.575.8.33.158 2.371-.129.934-.244.316-.489.991-.273 1.94-1.178.259-.632.963-1.221.56.043.187.374.575.33.359-.273.891.6 1.537.172 1.035.776.532.1 1.437-.144 1.509-.6 1.063-.029 1.423.46 2.084-.3 1.854.029.833-.158 1.25-.589.819.029 1.652-.431 1.236.474 2.457.115.374.388.46 1.092 1.121.848 1.279.144.4-.072-.014-.374 1.782.862 1.006.058.014-.388-1.911-.876.388-.144.115-.4-.331-.517-.043-.733-.575-.733-.158-.56-.014-1.049.259-.374 1.48.632 1.365 1.035 1.451.23 1.164 1.379 1.351.948.187-.23-1.279-1.164-1.365-2.1-.417-.172-1.049.115-.56-.876-1.753-.833.172-.46.647-.388-.273-.445.489-.316 1.063-.431.833-.115.991.23.158-.172-.6-1.121v-.647l-.489.144-.589 1.006-1.322.618-.618.5-.216-.129.158-.46-.316-.216.129-.718-.862-.115.733-.2-.5-.259-.014-.244.905-.79.589-.115-.057-.589.991-.1.316.589.991.6.23-.057-1.566-2.127-1.365-1.078.69-.187.575-.56-.072-.345-.489-.014.014-.359.762-.187.1.23.33-.144.029.2.273.043.474-.23.287-.417-.718.144z" transform="translate(29.684 120.373)"/><path id="KZ-PAV" class="cls-2" d="M616.066 37.055l1.265-.055.6.33.316.517.259 2.069-.891 1.365.2 1.581-.115.618-1.149 1.308-1.221.675-.244 1.552-.862.33-1.767 1.293-.532-.259-.744-1.379-.948.374-.647-.072-1.164-.69-1.466-.172-.589.014-.259.187-.1.79.23.948 1.854 2.5.244 1.983 1.135 2.112 5.992 5.819 22.531 18.234 8.047 7.716 1.466 1.724 5.044 8.348 4.4 6.667 5.216 9.469.2-.2 3.161 6.121-.23.158 9.038 15.978 1.652 3.851 2.472 3.822.345.963 1.121 1.537 1.9 3.765.244-.144.273.532-.216.172 2.213 4.656.546.546-.029.388 2.788 5.819-2.1.244-.747 4.383-4.282 1.092.747 2.443-3.607 3.535-.776-.934-5.589.819.129 2.673 1.437-.244-.431 1.8.259 2.127-1.451-.5-5.719 3.635-3.535 1.106-.632-1.451-1.71.762-.359 1.609-3.017 1.609-.647-.517-2.385 2.313 3.348 4.842.762 4.454 2.127.647 1.293 1.954 2.27 1.782 1.868.963 5.776 3.837-1.006 9.785 2.644.747.8 5.69-1.912 1.98-4.8 8.722-3.851 1.767-4.526-1.121-12-5-1.652-2.9-1.854 1.092-3.219-2.3 2.227-3.061-1.652-5.877-4.6-2.946-5.834-.23-4.943-5.23-5.388 1.394-2.874 2.8-1.739 6.926.172 4.3-1.049 1.839-3.132-1.868-3.147.345-2.2 1.264-.647-.489-1.286 3.473-1.322.316-3.621-2.127-9.814 2.7-1.236-1.322-1.336.517-.388 1.408-.991.56-8.19-.273-1.351 1.811-5.776 4.21-2.8.833-.532-1.193-1.8.086-.963-3.291 1.782-1.193-.043-.934 3.808-1.609.287.417 1.509-.489-.417-.8.948-.4-.46-1.739-3.219-1.279-.762-2.17.977-.575-2.155-3.707-1.609-.072-3.908-4.167-1.954 4.9-1.854-4.756 1.609-1.25-1.537-1.925-4.569-.891-.374-1.178-2.256 1.9-4.023.331-4.124 1.078-4.109-4.526 2.069-1.954-1.207-1.868.762-1.581 1.494-.345-.158-4.354.618-3.319 1.236-3.793-1.221-1.882-.115-3.247-9.627-3.492 3.018-3.564.417-3.19 6.222-4.066 2.845.8 1.092-1.365 1.494-.158.69-1.049-2.73-1.566-3.29-.3-1.422-3.291-5.115 2.515.144-8.463.876-1.035 3.923-3.089 1.71-.33-.589-1.25-.647-28.681-1.466-.216-.086-.8-.158-1.811-5.216-.388-1.422-3.765.575-1.71 1.293 1.782 2.041.3 1.193 2.558 1.38-.589-.388-4.426 1.782-.718-.273-2.428 1.422-.762-1.566-4.239-2.759.963-1.279-.4-1.681 4.541-3.779.057-.7-3.693 1.983-2.328-.92-1.94-3.098 2.159-.675-.7 1.667-1.365 1.063-2.658 1.6-2.385-.187-1.652 1.609-.776-.086-1.02 1.437-.776-1.308-2.04-1.451.977-.445-1.078-1.6.589-.1 1.006-3.994 3.487-.69-4.153.647-4.411 2.357 1.15 1.063-1.092-2.3-3.635-1.451-3.247 3.621-3.549.474-2.1 1.437.359.7-3.046 1.954.23 2.471 1.552 1.94-2.917 4.771 1.078-.287 3.247 2.443.23.517-2.428 2.012.431-.287.963 1.006.4-.014 1.854.5.3.086.33-.187 1.078 3.405 1.279 2.256-5.561-1.207-.7.833-4.153 4.727.776 1.25-4.21 1.581.259.8-.4.46-.8.417-1.839.244-.2.948.345 3.779-.029.388.23.6 1.135.632-.3 3.319-2.63L572.4 60.3l1.25-.56 3.391-2.63 1.954-1.049.8-.977-.014-.977-2.371-3.391 3.707-1.911 1.969.833.316-.057 17.146-7.981.115-.417-.718-.891v-.273l.79-2.328.244-.072 2.917 1.308 3.017.244 1.351-.072 1.509-.991 2.615.057 1.581-1.624.747-1.767 1.48-.129 1.954-1.178 1.523-.632.5.072.187 1.236-.115.216-4.225 2.3z" transform="translate(228.433 14.344)"/><path id="KZ-SEV" class="cls-2" d="M466.623 2.859l.7 1.681.359.187 1.811-.474 1.868-.862 1.193-.172.934.158 2.3 1.063.8-.33 2.084-.129 2.1.374 2.874 1.437 1.681.546.848.56.618.776.991 2.9.618.589 1.423.546 1.638.216 2.285 2.385.474.216 1.882.057.474-.244 1.437-1.624 3.061-1.322.417-.5.977-2.759.69-.733 1.092.014 1.811 1.049 1.48.029.546-.23.862-.977L509.6 7l2.788-.546.517.1.273 1.983.661 1.336 1.006 2L516 12.918l.374 1.724.991 1.006.963 1.868.2 1.207-.23 3.3.187 1.739-.6 1.466-.1 1.221.115.474 1.322 1.882.1 2.342.23.848.934 1.825 1.25 1.336 2.773.718 1.7 1.336.129.388.029 1.925-2.184.675-.5.4-.216.46-.287 2.17.158 2.012.388 2.615.675 2.342-.244 1.925-.575 1.466-.244.2-.445-.029-2.428-.474-1.71-.905-.23.043-.173.345.014 1.825.2.431.5.4 1.451.359.287.474.172 1.063-1.02 1.379-.1.417.316.489.833.5.431.517.4.905.164 1.611.431.374 1.02.3.331-.115 2.1-1.825.647-1.365 1.25-.259 4.11 1.293.273.632-.187 1.106.287.517 1.954-.374 1.969.661.647-.489 1.178-.33.718-.877-.028-.887-.56-1.652.5-1.724.661-.963 3.635.46 3.506.776.992.819.072.934.992.56-.086.905 1.954 1.106.215-.072.445-.718.187-1.753-.92-.977-2.17-1.15.4-1.437.819-1.379-.7-1.135-1.308-1.02-.474-1.08.129-.216.6-.144 2.04.029 1.092.244 2.4 1.839.56 1.724-.2 1.322 1.293.819-.661 2.055.273.316 2.486 1.624 2.644.733.086 1.351-1.71-.374-.46.589-1.351.072-.172.776.532.79-.029.532 1.049.819.029.23-1.178 4.038 1.451 1.566 1.423.489.359-.187 1.135-2.745.56-.848 4.684 1.9-.3-2.04-1.293-2.543-1.351-.273-1.193.072-.517.374-.963-.187.661-2.974 1.236-.618.345-.546 5.058.445.934.158.7.7 3.894.388-.086 2.112 1.811.287.747 2.443.417.259 3.247.69 2.2.733.259.345 3.133-.115.216-.359-.187-.963.2-.3.891.33 1.135.963 1.25.618.23-.115.057-.374-.733-1.7.014-.489 2.155-.718 1.178-.991.287-.661-.388-.733.158-.144 1.653.172.057.517 1.552.273-.733 4.929-.92 4.153-6.308-.948-.934 1.739.69 1.509-.948.445-2.055.417.33 1.365-.862 3.678-1.954.316.029 1.48.6.115.029.172-1.006 3.319 2.96 1.063.3.546 1.02.316.014.8-.6 1.753.489.589 1.509.848 1.451 3.247 2.3 3.635-1.063 1.092-2.357-1.15-.647 4.411.69 4.153 3.995-3.492.1-1.006 1.6-.589.445 1.078 1.451-.977 1.308 2.04-1.437.776.086 1.02-1.609.776.187 1.652-1.595 2.385-1.063 2.658-1.667 1.365.675.7 3.089-2.17.92 1.94-1.983 2.328.7 3.693 3.779-.057 1.681-4.541 1.279.4 2.759-.963 1.566 4.239-1.422.762.273 2.428-1.782.718.388 4.426-1.38.589-1.193-2.558-2.04-.3-1.293-1.782-.575 1.71 1.423 3.765 5.216.388.158 1.811-10.806-.8-2-3.837-2.084.1-.345-1.839-3.793.086-5.345-2.716-3.578 1.523-.776-8.262-1.178-1.336-.014-3.405-.589-1.48-.948.086-.905 1.293-3.018.029-2.6 1.293-1.193-1.121-5.379 1.203-1.308 3.42-6.61.5-8.147-1.02-.373-1.811-1.351-1.523-.029-1.581 1.782-.8-.891-2.457.905-3.276 1.121-1.681-5.791-6.294.172-1.767-2.845-.072-.934 1.882-1.739.244-.661.92-.776.129-1.049 1.092-2.471-.029-.3-.833-4.512-.8.417-2.73-.374-.029.115-1.379-11.8.33-.675 3.894-2.529.374.517 3.391-2.716.359-.417-2.213-2.845-3.592-.144-.8-.977-.072-.431.747-5.46.144.833-.733-.115-1.379 1.178-.1-.316-1.221 1.207-.69-.244-2.586-2 .819-3.463-.877-.632.934-.948-.474.675-1.523-.316-4.785-1.538-.532-.273-2.213-6.064-.1-1.049 1.121-1.365.086-.661 1.336-1.552-.33-.517 2.342-1.178.115.474 2.213 1.552.33-.905 2.1-1.926-.546-.072-2.184-.5-1.624-1.164-.3-.33-1.207-1.753-.345-.086-2-2.744-.216.086 2.4-3.937.287-.129-1.408-2.744-.2-.244 1.164-2.155-.158.92 1.451-.23.776.747.848-.632.747-4.11-.115.086 2.371 1.365-.086-.862 1.71-.733-.848-1.423 1.078-.057 1.178-.8.33-1.178.115-.848 1.308 2.012 2.917.129 1.581 1.538.517.876 1.825 3.118.244-.359 3.3 1.94.158.489 1.595-.1 1.954-.991.316 1.638 2.27-4.3 3.966 1.322 4.584-1.538-.316 2.371 2.7-2.385 1.193-.762-.259-1.236 1.264-.963-.072-.474 1.71-1.164.115-2 1.207-.532 2.673-.776.129-.7 2.27-3.075-.417-1.193.69-1.092 2.428-4.066-.086.618 3.132 1.71.69.316 1.365-3.492 3.808-1.106-.848-.848 1.48.718 1.006-1.624 1.609-.762-.431-2.946-2.7-3.98-1.609L425 143.36l-6.207.172.316 9.613-5.906-2.1-1.782 1.02-3.089-.388-2.831-1.523h-8.952l-.2-4.426-5.317.819-4.172 1.853-2.371-4.972-4.5-.273.345-14.7 2.974-.776-.187-5.273.589.043-.23-4.311-1.379-.086-1.006-4.569 1.236-1.494 2.946.2 1.825-1.451 4.1.862.7-3.1-4.21-2.63-.287-12.444-4.713-.5-1.221-3.65 1.25-1.7 2.27-2.227-.057-7.558-3.578.776-2.916-9.367 7.3-3.851 2.529-.244.79-.762-1.523-4.038-1.954-.187-5.273-3.3 5.36-1.911-3.176-8.736.8-1.15-.589-.862-1.437-5.446 6.854-2.63 8.708-2.141 2.184.4 1.293-1.71.445-.244 4.3-.632 2.7.216 1.135-1.207 2-.23 3.334-.8.316-.33.273-1.523.345-.374.618.072 1.236.718 2.946-.1 1.854.69.733-.23.589-.46 1.049-.014 3.492-1.451.431-.848.417-2.026.431-.632.92-.762.718-.287 1.15.057 3.19 1.581 2.127-.546 2.845-.172.417-.431-.3-1.006.374-1.7.762-1.164L442.3 17.7l-.79-.7-.345-.675-1.225-1.425-.23-.46.216-1.106-.719-1.135.029-.244 2.127-.043 1.035-.46.4.1 1.049.862.359-.144.417-.589.474-.172 2.63.3 2.687-.575.589.589.489.043.46-.848.374-2.17.273-.46.79-.374.517-.575.23-1.092.431-.647-.086-1.221.632-.733.517-.172 1.336.287 4.454 2.974.589.187.316-.287.23-.661-.417-1.652-.79-.891-.445-.086-.69.33-.259-.187-.129-2.026.23-.934.7-.632 1.02.029 1.94.589 2.328 1.466z" transform="translate(165.344)"/><path id="KZ-VOS" class="cls-2" d="M666.482 133.652l.56.891 1.911 4.526 4.354 8.665.259.891 3.506 7.055.5 1.466.216-.56.359 1.006 1.9 3.319 1.178 2.572-.388-2.773.129-1.293h.431l.2.79 2.8-.014-.057-2.457.259-.8 1.078-.129.345-.79 1.983-.057.072-.287.388-.1 1.063.043 1.48-1.681 1.092-.014-.1-.848.374-1.667-.014-2.184-.1-.905-1.078-1.135.129-3.506.891-.2 4.181.158.23-.69.014-1.94.431-1.207.69-.661 3.161.934.991.4.819.647 1.509.316-.172.517.331.417 2.515.934 1.437 1.092.69-.46.718-1.15.632.23.56.848.014 1.71-.6 2.788-1.308 2.084-.158 1.48-.4 1.049.129 1.609 2.7.086 4.584-1.739 1.911.029.115.589.244.029.1.23.043 1.15.445.187.259 1.207-.6.819.359.718.632.115.819 2.141.043.546-.819 1.7-.014.862.833.2 3.894.172 4.023-.776.187-.129.129-1.739.158-.129.4.216-.043.733 1.925-1.121 3.492.5.56.244 2.27 1.983 1.451.445 1.552-.158.546-.3.848-1.049.417-.115 1.293.129 1.322-.23 1.164.33h1.149l1.638.618.905.043.517-.158 2.831-1.811 1.193-1.221.273-.632.029-2.141.431-1.911 1.121-.316 2.471 1.006 1.609.388 1.509.1.733-.445.474-.8 2.026-1.983.3-.776-.187-1.063.374-.216.747.1.316.345.517.144.388.934.172.158.244-.072.316.532 1.264-.963 1.624-.158 2.471.589.776-.6-.56.776.2.489 2.04.891 1.006-.129 1.523.359 1.609.747 1.968 1.71 2.084.23.79.287.546.374 3.678 4.167.445 2.7.287.517 1.81 1.969.862 1.638h.216l1.308 1.207 1.437 2.04 1.293 1.236.4.747.158.6-.753 1.298-.043.819 1.322 4.124-.043.632-.589 1.293.014.5.762 1.423 1.724 1.969.33.2 2.069-.086 1.379-1.193.488-.043 2.285 2.084.92.431 2.084.431.747.489 1.164 1.178.546.259 1.652.158.417.589.129 1.049 2.026.043.7.216 1.839 1.509.776 1.236.23 1.063-.331.4-.647-.431-.3.345.086.632-.388.948.1 1.652.417.833.56.4 2.471.747.374.963v.963l2.184 3.98.244.848.086 1.049-.388 1.652.129.546.374.661 1.178.517.661 1.078 1.322-.129.776.517.3.589.948-.3.618.445.546-.445.359-.733 1.078-.46 1.667-.072 1.753.6 1.035 1.207.647.187 2.2-.589.905.23 1.135.733 2.586-.259.331.072.33.431-.374 1.581.144.359 1.25.474 1.509-1.15.79-.215 1.207.057 1.537 2.328.244.043.983-.857-.3-1.379 1.164-1.509-.086-1.207.172-.259 3.377-1.207 1.868-1.178 1.667-2.313 1.552-1.049.575-.92.632-.144.647-.6.417-.747-.431-.733.158-.575 5.288.014.072.388-1.063 2.2.029.7.4.675-.819.7-1.537.862-.833-.259-1.322 1.681-.043 1.193.4 1.365.632.647 1.466-.244 2.572 1.207.072.2-.546.546 1.078.891-.445 1.451.158.963 2.658 1.509.216 1.767-.374.517-.029.431.819.977.3 1.035.675.316.963-.072 1.02 1.753 4.239.374 2.2 1.336.359.546.876 3.707v.7l-.445-.072-.762-.589-1.322.043-.848-.848-1.581-.7-4.627 2.141-1.279.029-1.029-.623h-.388l-.747.776-.445 1.954-2.12 1.333-.647.8-.2.388-.072 1.207.374 2.012 2.141 2.716.014.934-1.451 1.092-.2.345-.144.876.632 1.207-.172 1.264-1.724 1.954-.445 1.25-.388.3-1.049.287-.345 1.264-.532.632-.388 1.538-1.308.273-3.018 1.767-1.221-.647-.647.287-1.351.086-1.178 1.537-1.71 1.207-1.379-.014-4.181-.56-1.365.776-1.394-.359-1.15.474-.977.1-3.032 2.486-.8 1.537-.129 1.6-1.494 3.793-.934 1.811-.115 1.422.158 1.638-.546 1.394-.115.963-1.121 2.213-.172 1.408 1.423 7.86.79 5.863-.489 3.621 1.02 2.7 1.624 2.313.244.92-.46 2.084.345 1.236-.172 2.6-.172.517-.359.273-2.227.216-.589.647-.4 2.242-.819 1.767-.086 1.351-2.342-.23-1.753.474-.8-.3-.877.575-.862-.632-1.911.345-.92 1.911-2.773 1.911-.575 1.092-.776.374-1.107.014-.747.374-.373 1.739-1.25.7-1.293-.029-1.81 1.15-.23-.029-.345-.489-2.3.216-.216-.23.1-.23 1.063-.575.532-1.265.833-.718-.4-.374-.058-.661-.718-.316-.244-1.034-.848-1.193-.517-.345h-.618l-.848.345-1.94-.029-1.581.776-1.264-.388-.474-.762-.431-.172-1.581.532-1.02-.273-3.377.172-.934.2-1.466.718-1.969.517-.56-.029-1.71-1.236-1.882-.029-1.609-.747-2.529-.618-1.653-.014-3.377-1.15-.7-.417-.991-1.121-1.724-1.466-1.365.388-1.609-2.112-2.974-.172-1.954-1.854-2.745-.072-.647.129-.6.417-1.035 6.365-.517 1.221-1.092.56-.56 3.032-.718 2.5-2.313 5.159-.489 1.753-.7 4.684-1.164 4.181-4.023 8.277-.762 2.012-.862 3.219-.445 6.725-.877 2.012-1.509 2.673-1.006 3.118-2.083 4.641-.532 1.552-.474 2.457.072.877-2.888 1.035-1.02-.891-.345-2.27.862-6.035-4.526-4.929-2.184-8.262-9.254-10.849.991-1.308-1.221.244-.388-.431 1.408-1.049.517-1.408-.661.029-.905 1.667-.977-.733-.977-.043-.934-.2 1.049-1.638-.819-.014-1.25 1.767-.905-1.049-.819-2.055-1.566 1.02-1.322.043L712.76 341l-8.679-.216-8.119-4.541-9.555-4.2.115-2.874-5.963-2.471-13.291 4.641-8.765-12.286-12.429 1.394-1.365-3.506-3.52-.316L639.77 315l-3.334-2.17-4.713-3.966-4.5 5.733-3.564-3.75-4.1 4.6-7.213-1.609-.762 1.408-2.784 1.254-3.29-1.609-1.739 1.078-1.351 3.722-4.153-1.552-2.716-2.012-1.451-2.471-2.5-1.293 2.2-.833 1.193-2.9-.144-3.147 2.644-.417 2.543 1.121-.3-2.127-1.466-6.322-.632-.287-.575-1.652 1.681-3.722 1.379-5.877 1.379.057.259-3.449 1.911-.014-1.667-2.4 5.2-1.9-1.983-1.581-2.816.216-3.592-3.276.733-2.155 2.457-.1.6-1.48-1.322-.4-4.368.115-.388-1.839-2.414-1.121-1.035-2.127 2.213-.675-.316-2.184 1.451-1.336 1.423-.115 2.141.733 5.144-5.288-.029-1.782 1.178-4.6-1.149-3.42-11.433 1.879-1.969-3.923.647-2.759-.244-1.652 2.328-1.207.575.819 2.673-1.135-2.7-2.816-2.256-1.308-.072-2.7-4.2-3.463-2.357-.776.072-1.437-2.242-2.572.417-2.457 6.6-3.176 7.271-2.673 2.486-3.908.575-2.256-.733-1.969.647-2.615-.848-1.264.776-3.319 2.543-.072 1.236-.862 3.951-1.811 2.2-3.061 4.11-3.42.632-2.457 1.854-1.092 1.652 2.9 12 5 4.526 1.121 3.851-1.767 4.8-8.722 1.911-1.983-.8-5.69-2.644-.747 1.006-9.785-5.776-3.837-1.868-.963-2.27-1.782-1.293-1.954-2.127-.647-.762-4.454-3.348-4.842 2.385-2.313.647.517 3.017-1.609.359-1.609 1.71-.762.632 1.451 3.535-1.106 5.719-3.635 1.451.5-.259-2.127.431-1.8-1.437.244-.129-2.673 5.59-.819.776.934 3.607-3.535-.747-2.443 4.282-1.092.747-4.383 2.1-.244z" transform="translate(255.137 53.29)"/><path id="KZ-YUZ" class="cls-2" d="M413.994 290.73l52.821.833 5.058 8.262 2.486 8.19 3.837 9.771 3.449 14.929 1.595 2.27 2.141 11.768 2.515 17.042-1.049.7-.5 3.319-1.94 3.032-.46 4.44-3.506 8.751.072.8-3.765 5.388 2.931 1.035-.776 1.207 1.207 3.736 1.509-.661.632.043-.316 1.394 1.94-.3 2.96 2.155.862-2.127.632.057.546 2.256 2.515.23.69 1.006.992-.388.69.862-.5 1.681 1.423 1.379 1.035-.69.718.546-1.006 1.782.877.7.905.4-.718.718.948 1.336-.374 3.1.086 1.868.546.675-.69 1.811 2.931 1.81 2.055-.115.316 1.264 1.652.618.158 1.236.905.244.345.948.8 1.135 1.523.287 1.9 3.319 2.227-.589.5.905-.5 1.423 1.207.058.014.876 1.566 1.422-.359.718-.029.934.259.632-.129.546.359.3 1.422-.115-1.121 1.408-1.681 1.02-.417.014-.79-.6-.92.862-.5.833-1.882 2.069-.086.762-1.308 3.291-.7.144-.733-.675-.46-.129-.029-1.351-.331-.546-1.523-.848-1.624-1.423-.632-.014-.23.273-.316 1.509-.776.934-1.135.877.23 2.2-1.494.963-1.035.331-1.178 1.322-1.063 2.285-2.73 1.537-.632 1.48h-.417l-.3-.92-.647.086-1.15 2.586-1.767.718-.719-.618-.747-.2-1.006.632-1.9.2-1.035.905-1.969.532-2.27 2.256-.69 1.437-1.609.474-1.006.862-.445.776.244.532.7.46-.2.618-.244.115-1.336-.216-1.609.388-1.221-.46-1.782.216-.69.417-.661 1.437-1.336.762-.69 1.724-.4.273-.833-.46-.316.1-1.193 1.854-.115 1.638-.963.92-.187 1.092h-.647l-.4.273-1.25 1.351-2.644 3.837-.445 1.006-.187 1.106-.8.733-1.106.431-.862.718-.316-.977 1.078-.733-.79-.359-.489.23-.4-.158-.3-.92-1.423.891-.187-.359-2.974-.187.014.776 2.184.144.532.833-.517.546.589 1.523-.517 4.483 1.983 2.745.675 1.983 1.451.776.517 1.264-2.6 1.035-1.451-.1-.489.675-2.946-.862.33-.69-1.15-.948-1.135.3-2.471-2.112-2.285-.8-2.17-2.428-3.477-2.055-1.48-.4-.862-1.207.445-1.379 2.457-.086-.057-3.147.891-.891-.848-2.07.848-.891 1.494-.316-.474-.287-.359.158-.833-.776-1.839 1.193-.5-.718-.891.79-2-1.868-1.236-1.494-.532-.144-.848-.776-9.3-.287-1.509.374-.532-.072-.517-.345-19.657-1.466-2.1-23.939-14.556-1.767.129-11.323.56-.661.057-3.98 1.954.848.043-.56 2.428.589 11.28-11.7 3.923 2.414 7.86-7.932 6.983-5.245 7.458-2.759 9.268-4.627 2.73-1.753.115-1.264-1.983.532-1.078-2.586.489-2.04-1.624.072.3-1.724-1.523.862.445 2.414-1.193.733-.833-3.693 2.831-.819.575-3.147-.23-1.279 2.658-2.73-.014-6.064 2.759 2.4 1.193-.575.316-4.138-.819-2.127-.589-.833 1.437-1.523 1.7-.69 1.078.862 1.969-1.954-7.673-5.475-3.2-3.894-.072-1.308-3.2-1.8-1.7.546-2.974-2.9.331-2.414.56-.79-.172-27.445-4.44-1.9-5.3-4.4 1.767-6.524.273-4.124.862-2.946 1.7-2.4.8-1.782-.848-2.716-4.411-3.405z" transform="translate(165.44 127.022)"/><path id="KZ-ZAP" class="cls-2" d="M122.6 123.5l3.262.1.445-.316 1.092.79 1.566-.374.2.2.647-.144.158.2.575-.043.029-.3 2.543-.517.675.56.115.632 1.767.431.2 1.767-.043 1.667-.345.474-2.385.129-.532.086-.144.244.115.6.618.417.216.431-.014 1.035 1.063.445 2.112-.086 1.106.431 2.515-1.264.7-.991-.014-1.035.618-.216.56 1.207.79-.158.359.144.517.877-.776 1.538.273.445.589.072 1.739-.905.8-.79 1.394-.532.129-.2-1.035-2.471-.043-.56.532-1.264 2.285-2.874 2.586.172 2.155 1.221 1.078-.33 1.164.144.934-.532.546-.8.359-1.494.934-.187 1.509.273 1.178-.848-.057-.991.733-.345.733.287.23.273.575 4.339 1.638 2.17.776 1.839.963.905.273 1.71 1.121.762.014.445-.244.187.129.589.56.216.043-.2.848-.474-.043.776.891.072-.287-.647.259-.144.345.359.216-.057.086-1.092.259-.043.3 1.15.5.316-.2-.891 1.351-.417.489.158-.144-.977.661.359v-.747l.23-.445.2.33-.057.431.287-.216.216.374.388-.2.072.5.7-.3.762.374.747-.287-.029.273-.79.474.144.5h.244l.359-.388.359.23.2-.877.445.014-.057.56.374.316.4.819.216-.172-.172-.56.762.3-.115-.69.79.374 1.408-.6.5-.489.316-.029.244.388.532.2 1.293-.129.014-.431-.56-.618.1-.474.747.2.546-.675.23.158-.331.69.158.2.618.216.92-.187.374.172.46.948.359.014.316-.7.7-.4.891-.273.431.158.532.8.733.158.632.6.014.632 1.264.618.144.5.991.417 1.25.072.158.661.589.675.819.431.158.532-.23.3-.8.115.762.963-.187.891-.33.187-.1.69.187.6 1.092 1.02.244.7-.1.575.5.632.6-.187 1.221.6.2.618.417-.287.56.086.675-.244.819.905.33.072.991-.187.287-.287 1.925.934.345.445 1.552.374.532.517-.1.46.287.244 1.7.546.56.546.374.963-.417 1.078.086.517.129.043.216-.546.23-.1.79 1.164.043.4-.489.144-.244.33.46.417-.029.632.7.273-.144.747 1.02.8.991 2.2.661.905.5.273 3.564.287 1.94 1.049.086.8-1.336 2.256-.431 1.854.331 1.595-1.063 2.112-.086 1.25 2.371 3.664.862-.057.733-.445.431.618-3.52 4.2.474 1.25-2.974 3.161 2.1 2.917-.517 3.032.1 3.693 1.322.4.086 1.106 1.882.891.359 2.184-1.25 2.529.1 1.279-2.687 4.727 1.638 2h-3.089l-.589 1.538-1.912 2.468.647 1.193-2.747 1.624-2.385-.431-3.449.072-.5 2.084-2.73-.014-2.155 1.94-1.135 2.9-1.739-.862.977 2.242-1.839 6.279.259 3.98-.92 1.394-5.4 4.584.733 1.71-4.325 1.365-9.7-.014-1.724-.833-1.652 3.88-2.486-1.078.431 10.26-3.362.144-1.954 8.219.632 2.069-1.969 1.193-3 .072-6.136-3.477-1.221.158-.991 1.753-8.952-2.04.216-3.449.963-.675-.747-1.523-11.811-2.04-3.319 1.523-5.776.4-1.566 4.871-2.572 1.581-1.15-.575-2.6 2.486-1.753.043-15.346 10.3-5.669 5.809-4.7-.115-1.523 1.25-8.693-.474.216 4.311-13.665-5.417-7.745-2.17-24.629-2.745-14.211-2.227-3.276.172-4.225-1.408-2.5-2.96.129-.474-.187-.144-1.351.029-1.969-.445-3.564-1.71-4.352-1.655-.833-.632 3.046-8.55 1.9-4.44 1.394-4.138 1.652-3.736 4.44-2.759 1.839-2.414.977-2.5.388-1.94-.216-.948-.647-.92-4.383-3.923-2.29-1.35-.072-.56.618-3.693.489-5.331 1.106-2.2.417-3.061-.014-2.859.532-4.023.4-.934.3-.33 1.537-.029L17.2 201.7l1.48-.992 1.739-1.739 1.164-1.782 1.868-3.75.172-.489-.359-1.164-1.825-2.9L23.278 187l-.115-.517-.56-.244-.014-2.227.489-.905 2.155-.158.3-.187.029-1.652.532-.33.445-1.336 1.825-1.753 1.178-.287 2.012 1.063 1.063 1.365 2.3 1.221-.244.489.92 1.221.273.23 1.063.144.1.718.848 1.207 1.48 1.394 1.178 1.581.359 1.178.747.618.129 1.221 1.006.862.445.819 1.193.374.316.445.92 4.21.532.532.086.718.316.532.747.546.762 1.336.216 1.006-.187.56.33.244 1.193.23.6-.388.489.115.374.733.417.172.216.8.819-.374.46.46.029.5.833.345.23-.2.014-1.135 8.406-3.822 3.564-3.492.417-.69-.632-1.825-.086-.876-1.753-.345-.762-.359-.187-.374.072-.776.316-.4.216-.92.072-.92-.4-1.106-1.336-2.184-.46-1.48-.417-3.765-1.379-7.242.4-1.336-.417-1.121-1.811-1.006-.316-.6-.029-.589.56-.675.6-.172.92.216 1.882 1.739 2.155.172.948.8.359.029 1.207-1.423 1.969-1.135L69.446 167l3.075-3.65 1.408-.79 2.371-.532 1.25-1.078 1.7-.144 2.141-.762.287-.848-.259-.819-1.178-2.73-.474-.776-.79-.618-.029-.359 1.537-2.572-.2-1.81.359-.359.862-.216.144-.877 1.078.244 1.25.7.589-.029 1.925-.69 2.816.517 1.135-.086 2.845-2.543.833-1.092 1.854-1.667 6.179-2.328 1.8-.331 4.11-2.055.129-.172-.517-.374-.56-1.394 1.078-1.106-.029-.445-.6-.647 3.089-.273.086-1.581h1.336l.072-.661-.661-1.509.273-2.227.388-1.264.417-.1.273.287.244-.2.56-1.825 1.552.014.632.33 1.969.287.029.848-1.365 1.336-.086.359 2.486-.287.23-.46.388-.172.445-3.1-1.02-.56-.517-.6-.187-1.724.33-1.753.79-.072 2.543 1.207z" transform="translate(0 52.276)"/><path id="KZ-ZHA" class="cls-2" d="M579.792 290.942l-2.242 4.9-2.658 4.483 1.207 14.656 1.523 4.009-8.435-.618.5 7.343 7.831.2.23 4.8 1.092 1.308.546 1.71 8.966 6.279 2.673 4.613-1.279 4.713.905 1.423 5.331 5.1 6.236.675.474.058 2.673 2.457 1.738.244 1.581 2.141 2.9 1.983.129 4.8-.632 1.667-1.236 1.423.647 2.773-.661 1.8-1.063.5-6.107 5.805.014 2.471 4.713 1.652.948-.647 1.581.2-.417 1.336 4.182-.517 1.006 1.7-3.707 4.5-.316 3.247 1.063.632-.388 1.652 1.078.474.661 2.73 2.7.56 5.259 2.486-.747 1.523-1.609.489.316.618 2.7-.3 1.552.977 1.451-.632.287 1.351.216-.029-.69 1.207-.5 2.414-.345.6-1.178.891-2.859-.905-3.434-.158-1.092.216-.661-.1-2.946-1.293-1.322.187-1.178.517-.848-.144-.244-.259-1.006-.057-.79-1.092-1.25-.532-.144-.374-1.25-.618-.8-.79-1.15-.144-.833-.632-.244.144-.115-.69-.259-.316-2.066-.881-.546.431H595.3l-.952-1.282-.348-1.2-.79-.7-1.121-.56-.359-1.092-.6-.287-1.149-1.035-.446.115-.56-.359-.259.158-.532-.963-1.351-.129-.4-.489-.46.259-.56-.3-1.221-.144-.23-.287-.718-.129-.388-.833-2.788.187-.69-.172-.388.23.6 1.25-.1.3-.431.23-.474.014-1.164.647-1.322.359-1.365-.417-.56-.647-.8-.23-1.374 2.218-.4 1.379-1.983-.56-1.15.129-3.906 2.058-1.868.776-.359.431-.115.244.273.5-.072.46-.56 1.207-.747.963-.4 1.02.1 4.7-1.164 2.213-1.063 3.707-.058 2.112.472 2.267 2.1 2.7-.086.833-.546.273-.445.057-.661-.46-2.946-.273-1.006-.833.014-1.782-.345-.359-1.609-.086-3.722-1.02-2 .2-.79-.2-.877.3-.661-.244-1.135-.043-.876-.661-1.121-.187-.7-.388-1.94-2.687-2.155-.675-1.681-.934-.532-.086-1.063.259-1.408-.3-6.049-2.8-1.394-.043-1.15.374-.69-.158-.589.56-.69.129-.877-.3-.891-.934-2.012-.575-.862-.546-.417-.589-2.1-.7-1.264.057-1.609.891-2.371.675-1.336.948-1.581-.374-.388-.546-1.092-.762-.5-.014-.833.388-2.213.086-.675.762-2.486-.129-.216.287.029.661-1.193 2.357-1.48.79.072 1.437-.33.934-3.463.4-.876.776-.072.345.517.79 1.839 1.351.029.718-.445.948-.489.158-.632-.187-1.164-.991-.46.388-.589.934-.172 1.25-.445 1.236-.56.862-.417.23-.417.963-1.566-1.423-.014-.876-1.207-.058.5-1.423-.5-.905-2.227.589-1.9-3.319-1.523-.287-.8-1.135-.345-.948-.905-.244-.158-1.236-1.652-.618-.316-1.264-2.055.115-2.938-1.809.69-1.811-.546-.675-.086-1.868.374-3.1-.948-1.336.718-.718-.905-.4-.877-.7 1.006-1.782-.718-.546-1.035.69-1.423-1.379.5-1.681-.69-.862-.992.388-.69-1.006-2.515-.23-.546-2.256-.632-.057-.862 2.127-2.96-2.155-1.94.3.316-1.394-.632-.043-1.509.661-1.207-3.736.776-1.207-2.931-1.035 3.765-5.388-.072-.8 3.506-8.751.46-4.44 1.94-3.032.5-3.319 1.049-.7-2.515-17.042-2.141-11.768-1.595-2.27-3.449-14.929-3.836-9.771-2.486-8.19-5.052-8.289 39.558-.086 22.387-.575 4.943.359 26.741-.991z" transform="translate(192.244 126.882)"/><path id="KZ-AS" class="cls-2" d="M296.444 269.169l-.46 2v2.3l-.158 2.457 2.759 3.377 3.837-.158 4.3.762 1.538-1.236 1.078.158.086 2.414-.464 4.757-1.753 2.989-2.73 1.624-2.6.977-2.012 1.825-2.931.517-2.6 2.414-.46 1.753-.977 1.365-2.213.46-1.753.517-.331 1.394-.589.776-.388 2.213-.388 1.882-1.437.977.129 1.236.073 1.561 1.365 1.494.589 2.285.46 1.882-.129 2.342-1.049 2.414-.331 1.437 1.308.977.647 2.342.072 5.273-.718 1.624v1.7l.718 2.414 1.236 1.049.589 1.825 1.7.129 1.106 1.365 1.178 3.837.647 2.989-.388 2.8-.977 2.8-.848.46-.647.647-.747.589-10.288-7.429h-.029v-.014l-23.939-17.286-.029.014-.043-1.106-.46-1.236-.848-.848-1.049-.647-.33-1.106-.259-1.178-.848-1.753.718-.905.129-1.437-.259-2.213.33-1.308-.589-1.106h-1.308l-.905-.331-.517-.589-.977-.517-.517.647-.46 1.049-.977.719-.79.445-1.164-.043-.776-.388h-.905l-.33.647v1.365l-.589.388-.144 1.423-6.911-4.986-2.572.991.072-1.207.92-1.538 1.236-.618.158-2.759 1.078-3.075 1.379-2.917 1.221-1.7 1.379-.92 2.917-.618 2.342-1.25.043-.014v.129l.517.086.776.647 1.7.259 1.753-.129.589-.517.905-.977 1.236-.718 1.365.718 1.178.848-.517 1.178-1.178 1.308-.848 1.236-.776 1.236-.33 1.566-.072 1.365.2 1.049h1.494l1.566-.589 1.566-.129 1.236.46 1.035-.848.589-1.566.589-1.882.977.517.905-.46.776-1.308.331-1.954-.259-2.673-.33-1.106-.057-1.178.517-1.882-.718-1.624-2.084-3.449-.977-1.437-.072-1.566.905-.2 2.73-.072 1.954.072 1.7.331 1.106 1.365-.072 2.155.2 1.753.589.977-.2 1.624-.331 1.106.905.517 1.954-.129 1.106-1.106 1.437-1.236 1.236-.719 2.213.259 2.931.589 1.494.331 1.494.848 1.624 1.753 1.753.589 3.707-.718h1.566l1.365-.905 1.624-.977.589-2.084.057-2.859-.848-1.624-1.365-2.083-.2-1.236-.072-1.308-1.236.259-1.049 1.308-2.155 1.494-1.7-.589-1.236-.977-.776-1.494h-1.624l-1.825.259-1.624.46-1.308.647h-1.571l-1.954-.848-.647-.977-.977-2.155-.833-1.035.172-2.874 1.15-1.538 6.337-4.225h1.925l1.351 1.351.762 1.538-.187 3.837.388 1.351 1.035-.733v-4.454l2.155.618 1.839.92 1.537-.762 1.078-1.236 1.078-.618v-1.782l-1.839-1.379-1.379-.158-1.537-.762.158-1.379 2.457-.158h1.379l1.379 1.221zm-22.315 45.823l1.379-.891 1.379-.589 1.193-.69h7.429l-.4-.69-2.874-.1-2.673-.489-.69-1.48-3.564-.4-2.371.2-2.27.1-2.371.589-.1 2.084-.1 2.974h2.974z" transform="translate(102.298 116.799)"/></g><path id="Path_1332" data-name="Path 1332" class="cls-1" d="M-32.021-45.793a5.135 5.135 0 0 1-5.135-5.135 5.135 5.135 0 0 1 5.135-5.135 5.134 5.134 0 0 1 5.134 5.135 5.134 5.134 0 0 1-5.134 5.135m0-17.071a11.936 11.936 0 0 0-11.936 11.936A11.887 11.887 0 0 0-41-43.074l8.98 24.447 8.976-24.434a11.885 11.885 0 0 0 2.967-7.871 11.935 11.935 0 0 0-11.944-11.932" transform="translate(1656.733 2037.502)"/><g id="Group_410" data-name="Group 410" transform="translate(1531.738 1939.061)"><g id="Group_404" data-name="Group 404" class="cls-3"><g id="Group_403" data-name="Group 403"><path id="Path_1332-2" data-name="Path 1332" class="cls-1" d="M-32.021-45.793a5.135 5.135 0 0 1-5.135-5.135 5.135 5.135 0 0 1 5.135-5.135 5.134 5.134 0 0 1 5.134 5.135 5.134 5.134 0 0 1-5.134 5.135m0-17.071a11.936 11.936 0 0 0-11.936 11.936A11.887 11.887 0 0 0-41-43.074l8.98 24.447 8.976-24.434a11.885 11.885 0 0 0 2.967-7.871 11.935 11.935 0 0 0-11.944-11.932" transform="translate(43.957 62.864)"/></g></g></g><g id="Group_411" data-name="Group 411" transform="translate(1431.923 1881.741)"><g id="Group_404-2" data-name="Group 404" class="cls-3"><g id="Group_403-2" data-name="Group 403"><path id="Path_1332-3" data-name="Path 1332" class="cls-1" d="M-32.021-45.793a5.135 5.135 0 0 1-5.135-5.135 5.135 5.135 0 0 1 5.135-5.135 5.134 5.134 0 0 1 5.134 5.135 5.134 5.134 0 0 1-5.134 5.135m0-17.071a11.936 11.936 0 0 0-11.936 11.936A11.887 11.887 0 0 0-41-43.074l8.98 24.447 8.976-24.434a11.885 11.885 0 0 0 2.967-7.871 11.935 11.935 0 0 0-11.944-11.932" transform="translate(43.957 62.864)"/></g></g></g><g id="Group_412" data-name="Group 412" transform="translate(1329.143 1905.46)"><g id="Group_404-3" data-name="Group 404" class="cls-3"><g id="Group_403-3" data-name="Group 403"><path id="Path_1332-4" data-name="Path 1332" class="cls-1" d="M-32.021-45.793a5.135 5.135 0 0 1-5.135-5.135 5.135 5.135 0 0 1 5.135-5.135 5.134 5.134 0 0 1 5.134 5.135 5.134 5.134 0 0 1-5.134 5.135m0-17.071a11.936 11.936 0 0 0-11.936 11.936A11.887 11.887 0 0 0-41-43.074l8.98 24.447 8.976-24.434a11.885 11.885 0 0 0 2.967-7.871 11.935 11.935 0 0 0-11.944-11.932" transform="translate(43.957 62.864)"/></g></g></g><g id="Group_413" data-name="Group 413" transform="translate(1265.894 1936.096)"><g id="Group_404-4" data-name="Group 404" class="cls-3"><g id="Group_403-4" data-name="Group 403"><path id="Path_1332-5" data-name="Path 1332" class="cls-1" d="M-32.021-45.793a5.135 5.135 0 0 1-5.135-5.135 5.135 5.135 0 0 1 5.135-5.135 5.134 5.134 0 0 1 5.134 5.135 5.134 5.134 0 0 1-5.134 5.135m0-17.071a11.936 11.936 0 0 0-11.936 11.936A11.887 11.887 0 0 0-41-43.074l8.98 24.447 8.976-24.434a11.885 11.885 0 0 0 2.967-7.871 11.935 11.935 0 0 0-11.944-11.932" transform="translate(43.957 62.864)"/></g></g></g><g id="Group_415" data-name="Group 415" transform="translate(1030.687 1841.222)"><g id="Group_404-5" data-name="Group 404" class="cls-3"><g id="Group_403-5" data-name="Group 403"><path id="Path_1332-6" data-name="Path 1332" class="cls-1" d="M-32.021-45.793a5.135 5.135 0 0 1-5.135-5.135 5.135 5.135 0 0 1 5.135-5.135 5.134 5.134 0 0 1 5.134 5.135 5.134 5.134 0 0 1-5.134 5.135m0-17.071a11.936 11.936 0 0 0-11.936 11.936A11.887 11.887 0 0 0-41-43.074l8.98 24.447 8.976-24.434a11.885 11.885 0 0 0 2.967-7.871 11.935 11.935 0 0 0-11.944-11.932" transform="translate(43.957 62.864)"/></g></g></g><g id="Group_416" data-name="Group 416" transform="translate(904.188 1993.416)"><g id="Group_404-6" data-name="Group 404" class="cls-3"><g id="Group_403-6" data-name="Group 403"><path id="Path_1332-7" data-name="Path 1332" class="cls-1" d="M-32.021-45.793a5.135 5.135 0 0 1-5.135-5.135 5.135 5.135 0 0 1 5.135-5.135 5.134 5.134 0 0 1 5.134 5.135 5.134 5.134 0 0 1-5.134 5.135m0-17.071a11.936 11.936 0 0 0-11.936 11.936A11.887 11.887 0 0 0-41-43.074l8.98 24.447 8.976-24.434a11.885 11.885 0 0 0 2.967-7.871 11.935 11.935 0 0 0-11.944-11.932" transform="translate(43.957 62.864)"/></g></g></g><g id="Group_417" data-name="Group 417" transform="translate(717.406 1943.014)"><g id="Group_404-7" data-name="Group 404" class="cls-3"><g id="Group_403-7" data-name="Group 403"><path id="Path_1332-8" data-name="Path 1332" class="cls-1" d="M-32.021-45.793a5.135 5.135 0 0 1-5.135-5.135 5.135 5.135 0 0 1 5.135-5.135 5.134 5.134 0 0 1 5.134 5.135 5.134 5.134 0 0 1-5.134 5.135m0-17.071a11.936 11.936 0 0 0-11.936 11.936A11.887 11.887 0 0 0-41-43.074l8.98 24.447 8.976-24.434a11.885 11.885 0 0 0 2.967-7.871 11.935 11.935 0 0 0-11.944-11.932" transform="translate(43.957 62.864)"/></g></g></g><g id="Group_418" data-name="Group 418" transform="translate(709.5 2075.442)"><g id="Group_404-8" data-name="Group 404" class="cls-3"><g id="Group_403-8" data-name="Group 403"><path id="Path_1332-9" data-name="Path 1332" class="cls-1" d="M-32.021-45.793a5.135 5.135 0 0 1-5.135-5.135 5.135 5.135 0 0 1 5.135-5.135 5.134 5.134 0 0 1 5.134 5.135 5.134 5.134 0 0 1-5.134 5.135m0-17.071a11.936 11.936 0 0 0-11.936 11.936A11.887 11.887 0 0 0-41-43.074l8.98 24.447 8.976-24.434a11.885 11.885 0 0 0 2.967-7.871 11.935 11.935 0 0 0-11.944-11.932" transform="translate(43.957 62.864)"/></g></g></g><g id="Group_419" data-name="Group 419" transform="translate(721.359 2237.518)"><g id="Group_404-9" data-name="Group 404" class="cls-3"><g id="Group_403-9" data-name="Group 403"><path id="Path_1332-10" data-name="Path 1332" class="cls-1" d="M-32.021-45.793a5.135 5.135 0 0 1-5.135-5.135 5.135 5.135 0 0 1 5.135-5.135 5.134 5.134 0 0 1 5.134 5.135 5.134 5.134 0 0 1-5.134 5.135m0-17.071a11.936 11.936 0 0 0-11.936 11.936A11.887 11.887 0 0 0-41-43.074l8.98 24.447 8.976-24.434a11.885 11.885 0 0 0 2.967-7.871 11.935 11.935 0 0 0-11.944-11.932" transform="translate(43.957 62.864)"/></g></g></g><g id="Group_420" data-name="Group 420" transform="translate(1082.076 2191.069)"><g id="Group_404-10" data-name="Group 404" class="cls-3"><g id="Group_403-10" data-name="Group 403"><path id="Path_1332-11" data-name="Path 1332" class="cls-1" d="M-32.021-45.793a5.135 5.135 0 0 1-5.135-5.135 5.135 5.135 0 0 1 5.135-5.135 5.134 5.134 0 0 1 5.134 5.135 5.134 5.134 0 0 1-5.134 5.135m0-17.071a11.936 11.936 0 0 0-11.936 11.936A11.887 11.887 0 0 0-41-43.074l8.98 24.447 8.976-24.434a11.885 11.885 0 0 0 2.967-7.871 11.935 11.935 0 0 0-11.944-11.932" transform="translate(43.957 62.864)"/></g></g></g><g id="Group_421" data-name="Group 421" transform="translate(1196.715 2305.708)"><g id="Group_404-11" data-name="Group 404" class="cls-3"><g id="Group_403-11" data-name="Group 403"><path id="Path_1332-12" data-name="Path 1332" class="cls-1" d="M-32.021-45.793a5.135 5.135 0 0 1-5.135-5.135 5.135 5.135 0 0 1 5.135-5.135 5.134 5.134 0 0 1 5.134 5.135 5.134 5.134 0 0 1-5.134 5.135m0-17.071a11.936 11.936 0 0 0-11.936 11.936A11.887 11.887 0 0 0-41-43.074l8.98 24.447 8.976-24.434a11.885 11.885 0 0 0 2.967-7.871 11.935 11.935 0 0 0-11.944-11.932" transform="translate(43.957 62.864)"/></g></g></g><g id="Group_422" data-name="Group 422" transform="translate(1180.903 2227.635)"><g id="Group_404-12" data-name="Group 404" class="cls-3"><g id="Group_403-12" data-name="Group 403"><path id="Path_1332-13" data-name="Path 1332" class="cls-1" d="M-32.021-45.793a5.135 5.135 0 0 1-5.135-5.135 5.135 5.135 0 0 1 5.135-5.135 5.134 5.134 0 0 1 5.134 5.135 5.134 5.134 0 0 1-5.134 5.135m0-17.071a11.936 11.936 0 0 0-11.936 11.936A11.887 11.887 0 0 0-41-43.074l8.98 24.447 8.976-24.434a11.885 11.885 0 0 0 2.967-7.871 11.935 11.935 0 0 0-11.944-11.932" transform="translate(43.957 62.864)"/></g></g></g><g id="Group_423" data-name="Group 423" transform="translate(1270.836 2247.4)"><g id="Group_404-13" data-name="Group 404" class="cls-3"><g id="Group_403-13" data-name="Group 403"><path id="Path_1332-14" data-name="Path 1332" class="cls-1" d="M-32.021-45.793a5.135 5.135 0 0 1-5.135-5.135 5.135 5.135 0 0 1 5.135-5.135 5.134 5.134 0 0 1 5.134 5.135 5.134 5.134 0 0 1-5.134 5.135m0-17.071a11.936 11.936 0 0 0-11.936 11.936A11.887 11.887 0 0 0-41-43.074l8.98 24.447 8.976-24.434a11.885 11.885 0 0 0 2.967-7.871 11.935 11.935 0 0 0-11.944-11.932" transform="translate(43.957 62.864)"/></g></g></g><g id="Group_424" data-name="Group 424" transform="translate(1406.228 2227.635)"><g id="Group_404-14" data-name="Group 404" class="cls-3"><g id="Group_403-14" data-name="Group 403"><path id="Path_1332-15" data-name="Path 1332" class="cls-1" d="M-32.021-45.793a5.135 5.135 0 0 1-5.135-5.135 5.135 5.135 0 0 1 5.135-5.135 5.134 5.134 0 0 1 5.134 5.135 5.134 5.134 0 0 1-5.134 5.135m0-17.071a11.936 11.936 0 0 0-11.936 11.936A11.887 11.887 0 0 0-41-43.074l8.98 24.447 8.976-24.434a11.885 11.885 0 0 0 2.967-7.871 11.935 11.935 0 0 0-11.944-11.932" transform="translate(43.957 62.864)"/></g></g></g><g id="Group_414" data-name="Group 414" transform="translate(1329.143 1976.615)"><g id="Group_404-15" data-name="Group 404" class="cls-3"><g id="Group_403-15" data-name="Group 403"><path id="Path_1332-16" data-name="Path 1332" class="cls-1" d="M-32.021-45.793a5.135 5.135 0 0 1-5.135-5.135 5.135 5.135 0 0 1 5.135-5.135 5.134 5.134 0 0 1 5.134 5.135 5.134 5.134 0 0 1-5.134 5.135m0-17.071a11.936 11.936 0 0 0-11.936 11.936A11.887 11.887 0 0 0-41-43.074l8.98 24.447 8.976-24.434a11.885 11.885 0 0 0 2.967-7.871 11.935 11.935 0 0 0-11.944-11.932" transform="translate(43.957 62.864)"/></g></g></g><text id="-" class="cls-4" transform="translate(1547.672 2037.011)"><tspan x="0" y="0">-</tspan></text><text id="" class="cls-4" transform="translate(1516.048 2002.422)"><tspan x="0" y="0"></tspan></text><text id="" class="cls-4" transform="translate(1402.397 1945.102)"><tspan x="0" y="0"></tspan></text><text id="" class="cls-4" transform="translate(1299.617 1968.82)"><tspan x="0" y="0"></tspan></text><text id="" class="cls-4" transform="translate(1248.227 1999.457)"><tspan x="0" y="0"></tspan></text><text id="" class="cls-4" transform="translate(1003.137 1904.583)"><tspan x="0" y="0"></tspan></text><text id="" class="cls-4" transform="translate(886.521 2056.776)"><tspan x="0" y="0"></tspan></text><text id="" class="cls-4" transform="translate(694.797 2006.375)"><tspan x="0" y="0"></tspan></text><text id="" class="cls-4" transform="translate(686.891 2138.802)"><tspan x="0" y="0"></tspan></text><text id="" class="cls-4" transform="translate(709.621 2300.878)"><tspan x="0" y="0"></tspan></text><text id="" class="cls-4" transform="translate(1044.644 2254.43)"><tspan x="0" y="0"></tspan></text><text id="" class="cls-4" transform="translate(1168.178 2369.069)"><tspan x="0" y="0"></tspan></text><text id="" class="cls-4" transform="translate(1150.389 2290.996)"><tspan x="0" y="0"></tspan></text><text id="-2" data-name="" class="cls-4" transform="translate(1240.321 2310.761)"><tspan x="0" y="0"></tspan></text><text id="" class="cls-4" transform="translate(1384.608 2290.996)"><tspan x="0" y="0"></tspan></text><text id="" class="cls-4" transform="translate(1296.652 2039.976)"><tspan x="0" y="0"></tspan></text></g></svg>