<svg xmlns="http://www.w3.org/2000/svg" viewBox="0 0 26.7 26.7"><defs><style>.cls-1{opacity:.497}</style></defs><g id="phone-call" class="cls-1"><path id="Path_1474" data-name="Path 1474" d="M21.459 26.7a11.468 11.468 0 0 1-3.928-.835 29.47 29.47 0 0 1-9.91-6.786A29.491 29.491 0 0 1 .833 9.167C-.276 6.226-.278 3.812.827 2.708c.159-.159.321-.33.488-.506C2.323 1.141 3.463-.052 4.973 0a4.379 4.379 0 0 1 3.083 1.977c3.052 3.8 1.676 5.148.084 6.716l-.281.278c-.26.26-.753 1.467 3.826 6.045a25.387 25.387 0 0 0 3.787 3.25c.641.417 1.788 1.047 2.259.577l.283-.286c1.566-1.589 2.919-2.96 6.711.089a4.375 4.375 0 0 1 1.975 3.082c.062 1.51-1.141 2.652-2.2 3.66-.175.167-.346.329-.5.487a3.5 3.5 0 0 1-2.541.825zM4.866.9c-1.073 0-2.042 1.02-2.9 1.923-.172.181-.339.357-.5.522-.824.823-.74 2.984.212 5.509a28.588 28.588 0 0 0 6.583 9.594 28.567 28.567 0 0 0 9.592 6.58c2.524.954 4.686 1.035 5.508.213.164-.164.34-.331.522-.5.922-.877 1.969-1.87 1.923-2.972a3.631 3.631 0 0 0-1.639-2.42C21 16.8 20.118 17.7 18.653 19.185l-.287.29c-.7.7-1.838.546-3.383-.458a26.223 26.223 0 0 1-3.933-3.369c-3.8-3.8-5.015-6.124-3.826-7.316l.286-.282C9 6.585 9.9 5.7 7.357 2.538A3.643 3.643 0 0 0 4.936.9z"/></g></svg>