<svg xmlns="http://www.w3.org/2000/svg" viewBox="12567 4869 43.051 37"><defs><style>.cls-1{fill:#00ab0c}</style></defs><path id="purse-with-bills" class="cls-1" d="M35.729 51.165H5.175A5.181 5.181 0 0 1 0 45.99V24.731a5.181 5.181 0 0 1 5.175-5.175h8.715L28.415 14.2a.641.641 0 0 1 .83.4l.618 1.867 3.81-1.208a.641.641 0 0 1 .814.45l1 3.842h.245A5.181 5.181 0 0 1 40.9 24.73v5.324a2.942 2.942 0 0 1 2.146 2.829v4.956a2.942 2.942 0 0 1-2.146 2.828v5.323a5.181 5.181 0 0 1-5.171 5.175zM5.175 20.837a3.9 3.9 0 0 0-3.894 3.894V45.99a3.9 3.9 0 0 0 3.894 3.894h30.554a3.9 3.9 0 0 0 3.894-3.894v-5.215H28.187a2.79 2.79 0 0 1-2.787-2.787v-5.256a2.79 2.79 0 0 1 2.786-2.786h11.437v-5.215a3.9 3.9 0 0 0-3.894-3.894H5.175zm21.507 17a1.657 1.657 0 0 0 1.655 1.655h11.777a1.657 1.657 0 0 0 1.655-1.655v-4.955a1.657 1.657 0 0 0-1.655-1.655H28.338a1.657 1.657 0 0 0-1.655 1.655zm4.2-18.283h3.278l-.744-2.866-3.151 1zm-13.286 0h11.938l-.686-2.071-.006-.017-.606-1.83zm12.824 18.23a2.425 2.425 0 1 1 2.425-2.425 2.428 2.428 0 0 1-2.424 2.427zm0-3.569a1.144 1.144 0 1 0 1.144 1.144 1.145 1.145 0 0 0-1.143-1.143z" transform="translate(12567 4854.835)"/></svg>